<svg width="601" height="472" viewBox="0 0 601 472" fill="none" xmlns="http://www.w3.org/2000/svg">
<circle cx="182" cy="182" r="182" fill="#676BDC"/>
<circle cx="273.5" cy="371.5" r="100.5" fill="#3BAFCA"/>
<circle cx="498" cy="138" r="42" fill="#676BDC"/>
<circle cx="580" cy="230" r="21" fill="#4F55A3"/>
<g opacity="0.2">
<path d="M273.5 396.512C312.436 396.512 344 393.361 344 389.475C344 385.588 312.436 382.438 273.5 382.438C234.564 382.438 203 385.588 203 389.475C203 393.361 234.564 396.512 273.5 396.512Z" fill="#000072"/>
</g>
<path d="M289.456 383.336C286.262 380.411 280.744 378.377 274.347 378.039C277.274 358.023 277.314 332.558 277.314 331.862C277.148 332.016 272.115 331.58 272.115 331.58C272.115 331.58 267.133 332.016 266.968 331.862C266.968 332.559 267.008 358.052 269.939 378.074C263.807 378.508 258.54 380.506 255.449 383.337C254.537 384.173 254.537 385.623 255.449 386.458C258.955 389.669 265.258 391.812 272.451 391.812C279.645 391.812 285.948 389.669 289.453 386.458C290.366 385.622 290.366 384.172 289.453 383.337L289.456 383.336Z" fill="#8B93A1"/>
<g opacity="0.3">
<path d="M277.313 331.862C277.313 332.155 277.307 336.963 277.067 343.935L267.162 342.323C266.975 336.234 266.969 332.134 266.969 331.862C267.134 332.016 272.117 331.58 272.117 331.58C272.117 331.58 277.147 332.016 277.313 331.862Z" fill="#000072"/>
</g>
<g opacity="0.3">
<path d="M289.456 386.455C285.951 389.667 279.647 391.811 272.454 391.811C265.261 391.811 258.957 389.668 255.452 386.455C254.537 385.62 254.537 384.173 255.452 383.338C255.581 383.221 255.715 383.104 255.848 382.992C263.415 385.966 276.36 389.13 289.787 383.726C290.354 384.572 290.242 385.736 289.456 386.455Z" fill="#000072"/>
</g>
<path d="M272.454 393.575C265.033 393.575 258.227 391.399 254.248 387.754C253.45 387.023 252.992 385.982 252.992 384.896C252.992 383.811 253.45 382.769 254.248 382.037C257.38 379.17 262.292 377.192 267.925 376.497C265.224 356.6 265.192 332.115 265.192 331.862C265.192 331.16 265.611 330.524 266.26 330.244C266.6 330.098 266.966 330.064 267.313 330.132H267.357C268.021 330.132 270.175 329.979 271.96 329.823C272.063 329.813 272.166 329.813 272.27 329.823C274.119 329.983 276.353 330.127 276.969 330.132C277.314 330.064 277.682 330.098 278.022 330.244C278.67 330.524 279.089 331.16 279.089 331.862C279.089 332.114 279.057 356.545 276.366 376.43C282.262 377.052 287.398 379.054 290.658 382.039C291.457 382.77 291.915 383.812 291.915 384.898C291.915 385.983 291.457 387.025 290.658 387.757C286.681 391.4 279.875 393.576 272.454 393.576V393.575ZM268.756 333.613C268.82 339.761 269.218 360.887 271.698 377.82C271.769 378.306 271.634 378.798 271.324 379.18C271.015 379.562 270.559 379.798 270.067 379.833C264.522 380.226 259.507 382.021 256.655 384.634C256.557 384.724 256.543 384.838 256.543 384.898C256.543 384.958 256.557 385.072 256.655 385.161C259.946 388.175 266 390.048 272.455 390.048C278.911 390.048 284.964 388.175 288.255 385.161C288.353 385.072 288.367 384.958 288.367 384.898C288.367 384.838 288.353 384.724 288.255 384.634C285.287 381.915 280.054 380.109 274.255 379.802C273.757 379.776 273.293 379.542 272.977 379.158C272.661 378.775 272.521 378.277 272.594 377.786C275.068 360.86 275.466 339.759 275.53 333.614C274.699 333.566 273.598 333.479 272.12 333.351C270.666 333.478 269.581 333.565 268.758 333.613H268.756ZM276.115 330.562C276.115 330.562 276.114 330.565 276.113 330.565C276.113 330.565 276.115 330.564 276.115 330.562ZM268.17 330.562C268.17 330.562 268.17 330.564 268.172 330.565C268.172 330.565 268.171 330.565 268.17 330.562ZM276.118 330.561C276.118 330.561 276.118 330.561 276.117 330.562C276.117 330.562 276.117 330.562 276.118 330.561ZM268.168 330.561C268.168 330.561 268.168 330.561 268.169 330.562C268.169 330.562 268.169 330.562 268.168 330.561ZM276.26 330.445C276.212 330.479 276.165 330.518 276.118 330.561C276.164 330.52 276.211 330.481 276.26 330.445ZM268.026 330.445C268.074 330.48 268.121 330.519 268.168 330.561C268.12 330.518 268.073 330.48 268.026 330.445Z" fill="#000072"/>
<path d="M249.71 364.954C263.516 367.683 277.496 367.66 291.627 365.297C292.969 365.072 293.84 363.729 293.462 362.431L293.439 362.354C292.806 360.303 290.747 359.028 288.594 359.19C276.019 360.127 263.174 360.012 250.112 359.06L249.711 364.955L249.71 364.954Z" fill="#8B93A1"/>
<path d="M271.218 368.79C263.77 368.79 256.466 368.088 249.363 366.682C248.489 366.51 247.879 365.718 247.938 364.832L248.34 358.938C248.372 358.47 248.589 358.033 248.947 357.725C249.304 357.417 249.769 357.266 250.24 357.298C263.652 358.276 276.511 358.318 288.459 357.428C291.474 357.197 294.278 359.057 295.135 361.836L295.161 361.92C295.485 363.033 295.315 364.217 294.701 365.19C294.081 366.171 293.068 366.844 291.921 367.035C284.928 368.205 278.012 368.79 271.217 368.79H271.218ZM251.588 363.514C264.29 365.83 277.651 365.844 291.333 363.558C291.536 363.523 291.648 363.389 291.696 363.313C291.75 363.227 291.806 363.088 291.756 362.92L291.739 362.861C291.366 361.653 290.104 360.844 288.726 360.947C277.134 361.811 264.707 361.81 251.762 360.942L251.587 363.514H251.588Z" fill="#000072"/>
<path d="M213.454 277.599C213.454 277.599 206.318 284.158 195.08 282.385C195.08 282.385 184.912 278.663 179.026 284.689C179.026 284.689 178.491 306.317 219.341 311.636C219.341 311.636 232.006 300.999 231.293 293.907C230.579 286.816 213.454 277.597 213.454 277.597V277.599Z" fill="white"/>
<g opacity="0.3">
<path d="M231.293 293.909C231.161 292.602 230.47 291.224 229.433 289.843C229.26 290.244 229.063 290.646 228.849 291.049C224.462 299.319 214.726 303.202 205.652 300.738C189.798 296.435 183.049 289.169 180.174 283.671C179.777 283.974 179.392 284.313 179.025 284.689C179.025 284.689 178.49 306.317 219.34 311.636C219.34 311.636 232.005 300.999 231.291 293.907L231.293 293.909Z" fill="#000072"/>
</g>
<path d="M219.34 313.401C219.263 313.401 219.186 313.396 219.109 313.386C201.703 311.119 189.381 305.701 182.487 297.282C177.161 290.779 177.244 284.893 177.25 284.646C177.261 284.202 177.439 283.779 177.751 283.46C183.985 277.075 194 280.152 195.514 280.667C205.694 282.204 212.182 276.363 212.247 276.304C212.803 275.791 213.628 275.687 214.298 276.047C216.136 277.036 232.273 285.936 233.057 293.733C233.841 301.524 221.855 311.834 220.485 312.985C220.163 313.255 219.756 313.401 219.339 313.401H219.34ZM180.845 285.404C181.013 286.947 181.793 290.95 185.427 295.28C189.737 300.416 199.016 307.067 218.784 309.782C222.423 306.59 230.006 298.858 229.526 294.084C229.099 289.838 219.957 283.283 213.637 279.717C211.165 281.547 204.389 285.636 194.801 284.127C194.686 284.109 194.575 284.08 194.466 284.04C194.381 284.009 185.93 281.023 180.845 285.404Z" fill="#000072"/>
<path d="M255.195 338.672L233.967 346.029C235.662 350.55 234.146 361.718 231.826 367.214C229.507 372.71 237.089 373.064 237.089 373.064C253.322 366.505 261.349 346.915 261.349 346.915L255.195 338.672Z" fill="white"/>
<g opacity="0.3">
<path d="M255.195 338.672L248.94 340.84C252.052 345.01 252.318 350.659 249.545 355.06C246.111 360.51 240.555 367.539 232.855 371.774C234.545 372.944 237.089 373.065 237.089 373.065C253.322 366.506 261.349 346.916 261.349 346.916L255.195 338.673V338.672Z" fill="#000072"/>
</g>
<path d="M237.089 374.828C237.062 374.828 237.033 374.828 237.005 374.827C236.511 374.803 232.134 374.52 230.34 371.696C229.701 370.692 229.157 368.978 230.19 366.531C232.355 361.398 233.797 350.628 232.304 346.644C232.138 346.2 232.158 345.708 232.361 345.278C232.564 344.848 232.933 344.518 233.383 344.363L254.61 337.005C255.345 336.752 256.158 337 256.621 337.62L262.776 345.863C263.145 346.357 263.228 347.009 262.995 347.579C262.655 348.407 254.493 367.935 237.759 374.697C237.546 374.783 237.319 374.827 237.09 374.827L237.089 374.828ZM236.109 347.155C237.251 352.993 235.501 363.066 233.464 367.895C232.929 369.162 233.241 369.651 233.342 369.811C233.91 370.706 235.746 371.15 236.805 371.27C249.97 365.725 257.546 350.928 259.307 347.139L254.548 340.764L236.109 347.155Z" fill="#000072"/>
<path d="M326.906 311.812C326.906 311.812 322.272 307.132 313.672 305.802C308.673 305.026 302.337 305.382 294.797 308.445C274.285 316.779 264.652 310.041 264.652 310.041L264.219 309.482C264.219 309.482 240.747 297.277 235.574 326.351L257.709 331.372L257.722 331.533L258.231 331.49C292.481 340.712 321.732 334.15 321.732 334.15C330.118 328.48 326.907 311.812 326.907 311.812H326.906Z" fill="#7BA2FF"/>
<g opacity="0.3">
<path d="M288.732 330.073C286.437 329.804 284.505 329.47 282.879 329.094C279.053 328.21 278.943 322.816 282.74 321.822C291.962 319.411 301.426 313.234 314.062 309.686C319.273 308.223 323.458 309.388 326.744 311.658C325.886 310.863 321.376 306.993 313.672 305.801C308.673 305.025 302.337 305.381 294.797 308.444C274.285 316.778 264.652 310.04 264.652 310.04L264.219 309.481C264.219 309.481 240.747 297.276 235.574 326.35L257.709 331.37L257.722 331.532L258.231 331.489C292.481 340.711 321.732 334.148 321.732 334.148C324.339 332.387 325.824 329.56 326.634 326.504C318.925 331.485 302.051 331.637 288.733 330.072L288.732 330.073Z" fill="#000072"/>
</g>
<path d="M296.427 338.208C285.667 338.208 272.345 337.083 258.067 333.273L257.87 333.29C257.432 333.326 257.001 333.202 256.654 332.942L235.179 328.07C234.257 327.861 233.662 326.97 233.826 326.043C235.559 316.306 239.492 309.877 245.516 306.934C254.505 302.543 264.616 307.697 265.042 307.918C265.269 308.037 265.468 308.202 265.624 308.404L265.862 308.71C267.257 309.501 276.438 313.997 294.127 306.811C301.016 304.012 307.686 303.084 313.948 304.058C323.022 305.461 327.967 310.366 328.173 310.574C328.419 310.822 328.585 311.137 328.651 311.479C328.792 312.207 331.976 329.358 322.732 335.608C322.547 335.733 322.341 335.822 322.124 335.87C321.421 336.028 311.407 338.208 296.43 338.208H296.427ZM258.359 329.73C258.473 329.738 258.584 329.757 258.694 329.786C290.186 338.265 317.669 333.173 321.004 332.498C326.556 328.388 326.038 317.364 325.264 312.711C324.046 311.67 319.938 308.556 313.4 307.544C307.782 306.673 301.751 307.524 295.47 310.077C274.301 318.676 264.056 311.779 263.632 311.482C263.486 311.381 263.357 311.257 263.248 311.117L263.071 310.888C261.397 310.116 253.623 306.894 247.065 310.109C242.449 312.374 239.284 317.383 237.646 325.009L258.106 329.65C258.194 329.67 258.28 329.697 258.362 329.729L258.359 329.73Z" fill="#000072"/>
<path d="M313.704 305.611L313.672 305.802C308.673 305.026 302.337 305.382 294.797 308.445C274.285 316.779 264.652 310.041 264.652 310.041L264.219 309.482L259.119 313.407L258.765 313.412C258.825 315.598 258.589 318.108 257.513 319.879L256.743 319.942L257.722 331.532L258.407 339.648C258.407 339.648 246.275 345.318 233.79 347.445C233.79 347.445 215.396 331.069 219.875 308.801C220.293 306.711 221.025 304.94 222.016 303.451C216.092 301.33 206.748 295.154 208.101 277.423C208.101 277.423 233.43 244.981 272.319 247.992C311.208 251.007 336.714 273.169 313.703 305.612L313.704 305.611Z" fill="#4D4F9E"/>
<g opacity="0.6">
<path d="M208.103 277.422C208.007 278.715 207.963 279.943 207.969 281.113C214.065 274.667 228.925 261.132 249.761 256.538C248.599 254.773 247.499 252.97 246.467 251.13C222.589 258.874 208.103 277.422 208.103 277.422Z" fill="white"/>
</g>
<g opacity="0.3">
<path d="M272.32 247.991C269.131 247.746 266.037 247.735 263.041 247.927C270.758 248.522 278.694 250.426 286.502 253.932C293.985 257.289 299.15 262.354 301.923 267.792C278.164 263.063 220.769 263.062 220.769 263.062C220.769 263.062 264.685 268.219 291.752 275.673C300.438 278.066 300.902 290.111 292.44 293.198C291.187 293.656 289.832 294.032 288.377 294.315C282.953 295.372 277.334 294.781 272.165 292.838C260.645 288.507 247.621 282.793 244.493 278.131C244.493 278.131 243.631 282.263 244.886 287.031C238.833 286.536 233.973 287.495 230.271 288.884C220.716 292.471 210.306 286.149 209.519 276.029C209.512 275.941 209.506 275.856 209.5 275.77C208.579 276.812 208.104 277.423 208.104 277.423C206.75 295.155 216.094 301.33 222.018 303.451C221.411 304.364 220.915 305.397 220.515 306.529C223.094 305.163 226.675 304.011 231.651 303.394C250.917 301 254.662 309.509 254.662 309.509C254.662 309.509 249.177 306.584 244.227 308.046C244.227 308.046 250.247 309.642 252.121 318.018C252.496 319.699 252.961 321.431 253.135 323.172C254.662 338.494 234.051 341.04 229.985 343.361C232.159 345.99 233.792 347.445 233.792 347.445C246.277 345.318 258.409 339.649 258.409 339.649L257.724 331.533L256.744 319.944L257.515 319.88C258.59 318.109 258.826 315.599 258.767 313.413L259.119 313.407L264.22 309.482L264.653 310.041C264.653 310.041 274.286 316.78 294.798 308.445C302.338 305.381 308.674 305.025 313.673 305.801L313.705 305.609C336.716 273.167 311.212 251.005 272.321 247.989L272.32 247.991Z" fill="#000072"/>
</g>
<path d="M233.79 349.209C233.356 349.209 232.933 349.052 232.605 348.759C231.823 348.063 213.511 331.447 218.135 308.456C218.431 306.973 218.885 305.589 219.489 304.326C213.272 301.47 205.023 294.428 206.333 277.289C206.359 276.945 206.487 276.615 206.701 276.341C206.966 276.001 213.33 267.928 224.616 260.129C235.065 252.909 251.84 244.64 272.46 246.232C296.843 248.123 315.234 257.356 321.654 270.929C326.543 281.263 324.369 293.496 315.368 306.326C315.112 307.15 314.273 307.679 313.398 307.546C307.782 306.676 301.753 307.526 295.47 310.08C276.612 317.74 266.424 313.103 264.123 311.79L260.544 314.544C260.486 317.137 259.98 319.236 259.034 320.793C258.927 320.969 258.791 321.122 258.635 321.249L260.177 339.502C260.24 340.237 259.835 340.932 259.164 341.246C258.66 341.481 246.67 347.042 234.091 349.185C233.992 349.201 233.891 349.209 233.792 349.209H233.79ZM209.834 278.103C208.837 293.52 216.212 299.497 222.618 301.793C223.131 301.977 223.529 302.383 223.701 302.896C223.873 303.41 223.797 303.973 223.497 304.424C222.609 305.762 221.976 307.35 221.617 309.145C217.849 327.876 231.307 342.508 234.369 345.55C244.007 343.776 253.376 339.924 256.533 338.55L254.975 320.092C254.936 319.626 255.084 319.163 255.388 318.805C255.641 318.509 255.983 318.304 256.362 318.222C256.829 317.047 257.046 315.424 256.991 313.461C256.978 312.989 257.156 312.532 257.485 312.192C257.751 311.916 258.1 311.735 258.474 311.673L263.132 308.089C263.505 307.802 263.979 307.675 264.444 307.733C264.912 307.792 265.337 308.035 265.624 308.405L265.862 308.711C267.257 309.502 276.438 313.998 294.127 306.813C300.576 304.192 306.831 303.213 312.742 303.897C320.736 292.315 322.707 281.449 318.441 272.431C312.571 260.021 295.278 251.542 272.183 249.751C237.052 247.033 212.905 274.428 209.834 278.103Z" fill="#000072"/>
<path d="M220.558 302.495C221.993 300.108 224.24 298.213 226.686 297.018C229.146 295.815 231.765 295.203 234.343 294.904C236.93 294.614 239.494 294.645 242.018 294.842C244.541 295.042 247.03 295.389 249.483 295.867C254.39 296.809 259.161 298.197 263.832 299.807C266.168 300.61 268.48 301.471 270.756 302.418C273.033 303.36 275.293 304.335 277.495 305.428C272.842 303.842 268.12 302.505 263.381 301.314C261.009 300.728 258.623 300.207 256.232 299.758C253.841 299.308 251.446 298.913 249.046 298.633C244.259 298.06 239.417 297.89 234.833 298.574C230.278 299.254 225.972 300.949 223.474 304.406C222.911 305.185 221.819 305.364 221.035 304.804C220.293 304.275 220.093 303.275 220.551 302.508L220.559 302.495H220.558Z" fill="#000072"/>
<path d="M255.025 320.39L254.704 312.307C254.704 312.293 254.715 312.283 254.728 312.281C254.738 312.281 254.747 312.286 254.751 312.294L258.46 319.495C258.917 320.383 258.563 321.472 257.67 321.926C256.776 322.38 255.681 322.029 255.223 321.141C255.1 320.902 255.037 320.641 255.026 320.389L255.025 320.39Z" fill="#000072"/>
<path d="M257.006 313.65L257.072 312.691L257.086 311.729C257.062 311.095 257.023 310.447 256.9 309.82C256.789 309.186 256.609 308.561 256.332 307.97C256.053 307.383 255.69 306.801 255.129 306.384C255.823 306.534 256.468 306.949 257.033 307.428C257.602 307.912 258.099 308.491 258.526 309.112C258.97 309.73 259.326 310.394 259.667 311.076L260.124 312.114L260.524 313.175C260.877 314.11 260.4 315.153 259.458 315.504C258.517 315.854 257.467 315.38 257.116 314.444C257.022 314.197 256.987 313.942 257.003 313.695L257.007 313.651L257.006 313.65Z" fill="#000072"/>
<path d="M268.363 307.316L265.305 310.876C264.655 311.633 263.511 311.723 262.749 311.077C261.987 310.431 261.897 309.294 262.546 308.537C262.711 308.345 262.916 308.193 263.129 308.087L267.359 306.032C267.773 305.831 268.273 306.001 268.475 306.413C268.625 306.719 268.569 307.071 268.36 307.316H268.363Z" fill="#000072"/>
<path d="M300.147 313.951C299.063 315.2 297.774 316.199 296.424 317.113L295.399 317.781C295.049 317.989 294.691 318.184 294.335 318.381C293.627 318.79 292.89 319.136 292.149 319.479C289.177 320.832 286.012 321.722 282.81 322.286L280.398 322.647C279.595 322.772 278.78 322.784 277.973 322.857C276.359 323.026 274.735 322.972 273.121 322.966C272.313 322.988 271.508 322.892 270.705 322.829C269.901 322.76 269.099 322.697 268.299 322.612C266.704 322.391 265.121 322.096 263.552 321.785C263.43 321.761 263.352 321.644 263.376 321.523C263.397 321.418 263.488 321.345 263.591 321.343H263.607C265.208 321.307 266.791 321.344 268.37 321.349C269.951 321.261 271.525 321.296 273.092 321.166C276.227 320.976 279.328 320.596 282.386 320.025C285.43 319.388 288.429 318.592 291.347 317.541C294.258 316.489 297.124 315.217 299.792 313.575L299.813 313.562C299.935 313.487 300.096 313.524 300.17 313.646C300.232 313.743 300.219 313.867 300.147 313.95V313.951Z" fill="#000072"/>
<g opacity="0.6">
<path d="M261.617 363.358C261.617 363.358 275.866 364.621 288.643 362.427L261.617 363.358Z" fill="white"/>
<path d="M271.44 364.595C265.707 364.595 261.615 364.243 261.539 364.236C261.051 364.193 260.691 363.765 260.733 363.28C260.777 362.794 261.216 362.437 261.696 362.479C261.838 362.492 275.98 363.706 288.491 361.557C288.972 361.478 289.433 361.796 289.517 362.277C289.6 362.757 289.276 363.213 288.793 363.296C282.823 364.322 276.493 364.595 271.44 364.595Z" fill="white"/>
</g>
<path d="M324.586 264.835L324.687 266.735C324.793 268.745 323.236 270.47 321.212 270.548C318.172 270.666 312.948 270.186 304.518 267.582C288.732 262.707 290.961 258.54 290.961 258.54L324.586 264.833" fill="#3BAFCA"/>
<path d="M320.325 272.623C316.034 272.623 310.517 271.59 303.904 269.548C295.301 266.891 290.471 264.036 289.139 260.821C288.433 259.116 288.956 257.905 289.133 257.575C289.558 256.779 290.456 256.353 291.344 256.518L324.97 262.812C325.908 262.987 326.604 263.777 326.655 264.725L326.756 266.626C326.837 268.162 326.308 269.632 325.266 270.767C324.231 271.892 322.821 272.545 321.293 272.604C320.978 272.617 320.655 272.623 320.326 272.623H320.325ZM295.259 261.44C296.981 262.567 299.966 264.022 305.132 265.617C313.441 268.183 318.417 268.596 321.131 268.491C321.544 268.474 321.925 268.297 322.205 267.992C322.494 267.677 322.641 267.269 322.618 266.842L322.603 266.557L295.258 261.439L295.259 261.44Z" fill="#000072"/>
<g opacity="0.2">
<path d="M324.586 264.685L324.687 266.586C324.793 268.596 323.236 270.321 321.212 270.399C318.172 270.516 312.948 270.036 304.518 267.432C288.732 262.558 290.961 258.391 290.961 258.391L324.586 264.684" fill="#000072"/>
</g>
<path d="M236.733 186.387C236.733 186.387 220.946 181.069 214.256 210.321C207.566 239.572 232.719 230.796 238.339 211.384C243.957 191.971 236.733 186.387 236.733 186.387Z" fill="#3BAFCA"/>
<path d="M220.334 231.281C219.532 231.281 218.745 231.187 217.984 230.993C214.979 230.225 208.403 226.628 212.237 209.865C215.036 197.629 219.758 189.589 226.274 185.964C232.11 182.718 237.185 184.367 237.398 184.438C237.617 184.513 237.821 184.622 238.004 184.763C238.344 185.025 246.266 191.439 240.328 211.953C237.223 222.68 228.025 231.281 220.333 231.281H220.334ZM233.839 188.062C232.397 188.062 230.387 188.368 228.193 189.614C222.871 192.638 218.751 199.956 216.276 210.777C214.176 219.963 215.199 226.031 219.016 227.006C223.758 228.221 233.124 221.953 236.348 210.815C240.811 195.398 236.749 189.471 235.672 188.238C235.288 188.158 234.653 188.061 233.839 188.061V188.062Z" fill="#000072"/>
<path d="M324.526 203.257C324.35 202.384 324.162 201.539 323.959 200.725C320.895 188.005 315.575 182.518 311.874 180.167C309.949 178.943 308.466 178.566 307.968 178.469C307.958 178.464 307.949 178.46 307.939 178.457C307.949 178.46 307.958 178.465 307.968 178.469C307.851 178.445 307.781 178.436 307.781 178.436L307.77 178.383C260.629 157.88 230.757 188.781 230.757 188.781C219.519 208.193 234.502 257.031 234.502 257.031L324.766 264.833C330.471 259.871 326.725 236.646 326.725 236.646L326.596 236.497C327.58 235.651 328.565 234.721 329.534 233.694C341.13 221.462 324.525 203.257 324.525 203.257H324.526Z" fill="#3BAFCA"/>
<g opacity="0.2">
<path d="M327.113 238.18C325.759 238.669 324.373 239.078 322.986 239.398C310.587 242.232 309.249 238.335 309.158 228.762C309.073 219.188 300.151 214.933 300.151 214.933C303.003 213.337 307.644 213.162 307.644 213.162C304.609 208.551 295.87 209.79 295.87 209.79C290.915 194.537 293.194 182.698 318.576 185.964C316.274 182.32 313.845 180.182 311.875 178.933C309.949 177.704 308.466 177.332 307.969 177.231C307.852 177.21 307.782 177.2 307.782 177.2L307.771 177.147C260.63 156.644 230.758 187.544 230.758 187.544C219.52 206.957 234.503 255.795 234.503 255.795L324.767 263.597C329.257 259.694 327.893 244.488 327.112 238.181L327.113 238.18ZM237.182 198.357C241.107 203.322 247.172 206.512 262.513 203.853C277.854 201.194 268.4 217.149 252.345 213.071C233.533 208.294 237.182 198.357 237.182 198.357ZM299.014 237.736C298.788 238.297 293.781 239.153 293.395 239.498C292.326 246.047 289.392 253.738 274.821 254.733C254.208 256.141 231.515 255.065 230.855 222.065C230.752 216.923 236.097 213.455 240.782 215.639C243.17 216.753 246.195 217.87 250.026 218.921C260.619 221.829 269.672 219.122 275.538 216.222C279.108 214.457 283.399 216.06 285.013 219.685C285.281 220.284 285.579 220.898 285.907 221.518C291.612 219.53 298.748 221.916 300.151 227.963C301.221 231.685 300.62 234.013 299.014 237.735V237.736Z" fill="#000072"/>
</g>
<path d="M224.041 218.505C223.334 218.505 222.658 218.205 222.186 217.683C211.043 205.36 202.458 190.124 200.823 179.769C200.721 179.115 200.879 178.46 201.271 177.926C201.664 177.391 202.241 177.041 202.899 176.937C203.029 176.917 203.157 176.908 203.284 176.908C204.519 176.908 205.556 177.788 205.749 179.001C207.223 188.339 215.507 202.884 225.894 214.371C226.339 214.863 226.565 215.499 226.529 216.16C226.494 216.821 226.202 217.429 225.707 217.871C225.248 218.28 224.656 218.506 224.041 218.506V218.505Z" fill="#5A5E8C"/>
<path d="M203.284 177.79C204.06 177.79 204.748 178.35 204.872 179.138C206.37 188.628 214.743 203.358 225.235 214.96C225.828 215.615 225.773 216.624 225.114 217.214C224.808 217.488 224.424 217.623 224.041 217.623C223.6 217.623 223.164 217.444 222.847 217.094C211.808 204.887 203.31 189.832 201.7 179.633C201.563 178.763 202.162 177.946 203.038 177.809C203.12 177.796 203.203 177.79 203.284 177.79ZM203.284 176.026C203.111 176.026 202.937 176.039 202.765 176.066C201.87 176.206 201.086 176.681 200.554 177.407C200.022 178.132 199.807 179.019 199.947 179.906C201.606 190.414 210.278 205.833 221.526 218.272C222.167 218.98 223.083 219.386 224.041 219.386C224.876 219.386 225.679 219.08 226.3 218.525C226.972 217.925 227.368 217.101 227.416 216.204C227.464 215.308 227.158 214.447 226.554 213.779C216.27 202.407 208.075 188.049 206.626 178.864C206.364 177.218 204.959 176.025 203.284 176.025V176.026Z" fill="#000072"/>
<path d="M192.583 170.299C205.366 170.299 215.728 158.394 215.728 143.707C215.728 129.02 205.366 117.115 192.583 117.115C179.801 117.115 169.438 129.02 169.438 143.707C169.438 158.394 179.801 170.299 192.583 170.299Z" fill="#3BAFCA"/>
<g opacity="0.6">
<path d="M173.451 145.391C173.451 130.704 183.814 118.799 196.596 118.799C198.635 118.799 200.61 119.104 202.494 119.672C199.49 118.034 196.13 117.115 192.583 117.115C179.8 117.115 169.438 129.02 169.438 143.707C169.438 156.051 176.76 166.428 186.687 169.424C178.863 165.158 173.452 156.002 173.452 145.391H173.451Z" fill="white"/>
</g>
<path d="M192.583 171.77C179.005 171.77 167.959 159.181 167.959 143.707C167.959 128.233 179.005 115.644 192.583 115.644C206.162 115.644 217.208 128.233 217.208 143.707C217.208 159.181 206.162 171.77 192.583 171.77ZM192.583 118.586C180.637 118.586 170.918 129.855 170.918 143.708C170.918 157.561 180.637 168.831 192.583 168.831C204.53 168.831 214.249 157.561 214.249 143.708C214.249 129.855 204.53 118.586 192.583 118.586Z" fill="#000072"/>
<path d="M200.477 166.179C213.259 166.179 223.622 154.273 223.622 139.586C223.622 124.899 213.259 112.994 200.477 112.994C187.694 112.994 177.332 124.899 177.332 139.586C177.332 154.273 187.694 166.179 200.477 166.179Z" fill="#3BAFCA"/>
<path d="M200.476 167.647C186.897 167.647 175.851 155.059 175.851 139.585C175.851 124.111 186.897 111.522 200.476 111.522C214.054 111.522 225.101 124.111 225.101 139.585C225.101 155.059 214.055 167.647 200.476 167.647ZM200.476 114.464C188.529 114.464 178.81 125.733 178.81 139.586C178.81 153.439 188.529 164.708 200.476 164.708C212.422 164.708 222.142 153.439 222.142 139.586C222.142 125.733 212.423 114.464 200.476 114.464Z" fill="#000072"/>
<path d="M324.586 266.893C324.527 266.893 324.467 266.89 324.408 266.886L234.146 259.086C233.303 259.013 232.591 258.439 232.345 257.636C231.722 255.607 217.231 207.712 228.784 187.756C229.354 186.771 230.622 186.433 231.612 186.999C232.604 187.566 232.945 188.824 232.375 189.81C222.719 206.491 233.662 247.226 235.919 255.107L323.749 262.698C326.496 258.809 325.901 245.64 324.506 236.974C324.325 235.852 325.094 234.796 326.223 234.616C327.354 234.441 328.415 235.201 328.596 236.323C329.251 240.388 332.206 260.946 325.952 266.385C325.573 266.714 325.088 266.894 324.589 266.894L324.586 266.893Z" fill="#000072"/>
<path d="M308.799 270.05L255.348 264.459L256.196 256.454L309.647 262.045C311.872 262.278 313.485 264.258 313.251 266.469C313.016 268.68 311.023 270.283 308.799 270.05Z" fill="#C0BECC"/>
<g opacity="0.3">
<path d="M308.799 270.05L255.348 264.459L256.196 256.454L309.647 262.045C311.872 262.278 313.485 264.258 313.251 266.469C313.016 268.68 311.023 270.283 308.799 270.05Z" fill="#000072"/>
</g>
<path d="M309.234 271.837C309.028 271.837 308.821 271.826 308.614 271.804L255.163 266.213C254.188 266.112 253.481 265.243 253.584 264.275L254.432 256.268C254.48 255.802 254.715 255.375 255.08 255.081C255.446 254.787 255.912 254.651 256.383 254.698L309.834 260.289C311.382 260.451 312.772 261.202 313.752 262.404C314.732 263.606 315.181 265.114 315.017 266.653C314.854 268.191 314.099 269.573 312.89 270.547C311.842 271.389 310.564 271.837 309.235 271.837H309.234ZM308.986 268.296C309.587 268.358 310.182 268.184 310.655 267.804C311.128 267.424 311.422 266.884 311.486 266.285C311.617 265.044 310.71 263.93 309.461 263.798L257.776 258.392L257.3 262.889L308.986 268.297V268.296Z" fill="#000072"/>
<path d="M299.011 238.442C299.062 238.655 298.765 238.944 298.131 239.249C297.496 239.535 296.508 239.819 295.211 239.83C293.927 239.84 292.301 239.539 290.739 238.547C289.966 238.044 289.218 237.369 288.624 236.444C288.338 235.97 288.078 235.443 287.939 234.798C287.81 234.16 287.786 233.361 288.158 232.545C288.243 232.346 288.379 232.156 288.503 231.971C288.637 231.794 288.8 231.64 288.961 231.488C289.126 231.35 289.302 231.241 289.48 231.129C289.655 231.028 289.829 230.964 290.006 230.89C290.695 230.656 291.339 230.608 291.875 230.654C292.429 230.686 292.915 230.79 293.368 230.914C293.562 230.968 293.754 231.021 293.943 231.073C294.116 231.123 294.287 231.173 294.456 231.223C295.804 231.602 297.01 231.819 297.981 231.857C298.944 231.881 299.666 231.736 300.151 231.532C300.652 231.341 300.936 231.129 301.153 231.195C301.363 231.244 301.463 231.77 301.017 232.452C300.593 233.148 299.562 233.827 298.257 234.128C296.954 234.424 295.415 234.402 293.814 234.135C293.431 234.065 293.04 233.992 292.64 233.918C292.326 233.858 292.013 233.818 291.746 233.82C291.461 233.802 291.257 233.868 291.146 233.902C291.132 233.918 291.098 233.919 291.092 233.927C291.083 233.925 291.11 233.966 291.057 233.903C291.053 233.891 291.003 233.848 291.003 233.848C291.035 233.871 291.007 233.849 291.064 233.881C291.154 233.926 291.095 233.885 291.111 233.909C291.119 233.927 291.096 233.922 291.104 233.955C291.098 234 291.107 234.079 291.115 234.165C291.146 234.35 291.242 234.587 291.364 234.821C291.629 235.292 292.029 235.75 292.483 236.122C293.403 236.867 294.494 237.312 295.468 237.556C297.438 238.046 298.912 237.967 299.013 238.441L299.011 238.442Z" fill="#000072"/>
<path d="M299.813 224.613C299.821 225.052 298.382 225.176 296.953 226.473C296.243 227.123 295.534 228.066 294.944 229.304C294.649 229.919 294.375 230.6 294.137 231.331C294.019 231.697 293.908 232.075 293.807 232.463C293.71 232.838 293.611 233.272 293.556 233.604C293.413 234.457 292.601 235.034 291.742 234.891C291.637 234.874 291.535 234.847 291.439 234.81L291.426 234.804C291.175 234.708 291.059 234.649 290.895 234.569C290.739 234.494 290.6 234.41 290.452 234.329C290.169 234.16 289.895 233.975 289.633 233.773C289.116 233.362 288.619 232.904 288.204 232.362C287.347 231.301 286.817 230.045 286.569 228.832C286.329 227.613 286.36 226.449 286.48 225.385C286.523 225.107 286.588 224.825 286.646 224.554C286.702 224.281 286.759 224.015 286.88 223.744C286.985 223.477 287.087 223.216 287.201 222.963C287.353 222.714 287.508 222.472 287.663 222.24C288.343 221.319 289.31 220.724 290.186 220.468C291.969 220.002 293.264 220.387 294.078 220.687C294.897 221.016 295.27 221.379 295.199 221.587C295.128 221.801 294.655 221.858 293.876 221.93C293.116 222.003 291.979 222.091 291.014 222.601C290.547 222.869 290.179 223.229 289.915 223.718C289.626 224.19 289.542 224.909 289.465 225.661C289.449 226.488 289.488 227.336 289.683 228.144C289.887 228.946 290.232 229.707 290.761 230.358C291.012 230.694 291.323 230.977 291.634 231.242C291.795 231.371 291.96 231.488 292.127 231.597C292.21 231.644 292.295 231.702 292.373 231.743C292.442 231.783 292.56 231.839 292.55 231.838L290.42 233.039C290.54 232.483 290.666 232.056 290.816 231.591C290.962 231.138 291.126 230.702 291.302 230.28C291.653 229.435 292.065 228.649 292.527 227.936C293.439 226.508 294.615 225.391 295.793 224.77C296.98 224.144 298.077 224.035 298.773 224.121C299.125 224.158 299.388 224.237 299.561 224.332C299.734 224.422 299.818 224.515 299.815 224.612L299.813 224.613Z" fill="#000072"/>
<path d="M328.243 120.971V142.244C328.243 142.244 327.43 154.572 319.317 164.065C295.894 165.693 274.45 181.913 262.933 192.343C257.33 197.416 254.077 201.123 254.077 201.123C254.077 201.123 247.777 198.464 245.343 195.05L245.332 194.806C242.517 194.955 239.489 194.987 236.336 194.837C216.488 193.918 191.967 185.838 186.904 152.806C186.904 152.806 180.434 147.201 174.82 134.905C171.92 128.55 169.249 120.407 167.821 110.328L168.141 109.993C170.71 112.408 174.017 114.451 178.303 115.742C178.169 115.439 172.465 102.961 175.992 87.0231L176.217 86.9537C178.069 93.0541 182.334 99.5049 191.153 104.749C191.153 104.749 191.687 92.8306 198.848 80.7686C202.814 88.0863 210.729 96.4635 226.473 99.2556C226.473 99.2556 226.558 97.1974 226.697 94.4371C231.251 97.2562 237.47 99.2132 245.738 98.3676C245.738 98.3676 245.433 97.128 245.128 94.9899C245.93 95.3992 246.787 95.7614 247.702 96.0637C247.702 96.0637 246.889 83.4537 249.115 73.0935C251.528 79.7313 256.35 88.5273 265.72 93.9361C265.72 93.9361 265.72 89.2024 267.513 83.0279C270.414 95.191 279.58 114.731 308.441 121.501C308.441 121.501 319.294 133.595 327.969 120.783L328.242 120.968L328.243 120.971Z" fill="#FFB78A"/>
<path d="M254.075 203.183C253.803 203.183 253.529 203.13 253.267 203.019C252.609 202.742 247.086 200.343 244.183 196.92C241.505 197.026 238.838 197.018 236.238 196.894C215.856 195.95 190.491 187.69 184.969 153.825C183.207 152.12 177.765 146.334 172.935 135.755C169.47 128.163 167.06 119.704 165.771 110.615C165.682 109.992 165.886 109.364 166.322 108.909L166.643 108.574C167.43 107.753 168.738 107.72 169.566 108.498C171.115 109.956 172.881 111.181 174.843 112.165C173.301 106.898 171.551 97.5185 173.971 86.5821C174.13 85.8588 174.669 85.2766 175.38 85.0579L175.604 84.9885C176.132 84.8262 176.703 84.8803 177.19 85.1367C177.677 85.3942 178.04 85.8341 178.2 86.3598C179.967 92.1803 183.748 97.1598 189.459 101.196C190.135 96.6506 191.999 88.2568 197.065 79.7231C197.445 79.0833 198.132 78.6952 198.889 78.7105C199.635 78.7246 200.317 79.1386 200.671 79.7925C203.989 85.9141 210.794 93.6609 224.51 96.7611C224.544 96.0566 224.584 95.2322 224.629 94.3337C224.665 93.6057 225.087 92.9506 225.738 92.6131C226.389 92.2755 227.17 92.3049 227.792 92.6895C232.232 95.438 237.438 96.7105 243.262 96.4812C243.201 96.1178 243.138 95.7156 243.077 95.2792C242.969 94.5183 243.297 93.7597 243.927 93.314C244.392 92.9847 244.963 92.8671 245.509 92.9682C245.409 88.4768 245.496 80.0818 247.089 72.6654C247.282 71.7669 248.051 71.1048 248.973 71.0424C249.88 70.9754 250.747 71.5317 251.061 72.3961C253.055 77.879 256.86 85.1461 263.914 90.3056C264.159 88.278 264.627 85.5424 265.521 82.4599C265.777 81.5778 266.59 80.9721 267.511 80.9721C267.527 80.9721 267.544 80.9721 267.562 80.9721C268.502 80.9945 269.309 81.6449 269.526 82.5552C272.139 93.5151 280.732 112.889 308.915 119.5C309.329 119.597 309.701 119.818 309.984 120.132C310.025 120.177 314.391 124.932 319.201 124.596C321.77 124.416 324.141 122.747 326.249 119.635C326.558 119.18 327.037 118.864 327.58 118.762C328.124 118.66 328.686 118.777 329.14 119.088L329.412 119.274C329.974 119.657 330.311 120.292 330.311 120.97V142.243C330.311 142.287 330.309 142.332 330.306 142.378C330.271 142.91 329.35 155.498 320.892 165.398C320.531 165.82 320.014 166.08 319.457 166.118C296.374 167.723 275.006 184.19 264.325 193.865C258.89 198.787 255.666 202.441 255.634 202.477C255.232 202.935 254.659 203.182 254.073 203.182L254.075 203.183ZM247.322 194.234C248.797 196.002 251.664 197.667 253.57 198.617C254.965 197.122 257.703 194.298 261.538 190.823C272.482 180.912 294.296 164.121 318.279 162.082C325.098 153.628 326.1 143.044 326.171 142.167V125.913C324.135 127.605 321.894 128.54 319.468 128.705C313.698 129.099 308.864 124.846 307.368 123.364C283.316 117.525 272.677 102.904 267.975 91.2653C267.795 92.92 267.79 93.9173 267.79 93.9373C267.79 94.6736 267.395 95.3533 266.752 95.7215C266.11 96.0896 265.319 96.0872 264.679 95.7179C257.649 91.6604 253.066 85.8282 250.103 80.3512C249.3 88.3544 249.761 95.8379 249.768 95.9343C249.812 96.6176 249.511 97.2786 248.964 97.6961C248.622 97.9584 248.212 98.103 247.793 98.1218C247.853 98.6252 247.725 99.1368 247.428 99.5555C247.083 100.041 246.544 100.355 245.949 100.416C239.543 101.073 233.727 100.195 228.607 97.8102C228.565 98.7628 228.54 99.3403 228.54 99.3426C228.515 99.9365 228.233 100.49 227.767 100.862C227.3 101.234 226.696 101.387 226.107 101.283C211.565 98.704 203.436 91.4828 198.943 84.8956C193.731 95.2298 193.224 104.741 193.219 104.844C193.185 105.568 192.772 106.22 192.129 106.563C191.488 106.905 190.712 106.888 190.086 106.517C184.297 103.074 179.933 98.8698 177.045 93.9667C176.155 105.421 179.708 113.824 180.186 114.892C180.515 115.628 180.385 116.495 179.849 117.098C179.311 117.701 178.475 117.946 177.698 117.712C175.117 116.933 172.745 115.86 170.603 114.501C171.926 121.512 173.972 128.072 176.702 134.054C182.032 145.729 188.202 151.203 188.264 151.257C188.63 151.577 188.873 152.017 188.947 152.496C193.805 184.198 217.448 191.902 236.427 192.782C239.298 192.917 242.254 192.906 245.218 192.75C245.766 192.72 246.311 192.912 246.721 193.283C247.006 193.54 247.212 193.871 247.317 194.234H247.322Z" fill="#000072"/>
<path d="M237.401 202.376C237.013 202.157 237.779 200.087 239.114 197.745L239.821 198.952L239.781 198.955C238.657 198.958 237.694 199.432 237 199.867C236.304 200.304 235.868 200.654 235.674 200.537C235.483 200.428 235.599 199.796 236.224 199.022C236.538 198.64 236.987 198.227 237.591 197.899C238.191 197.569 238.955 197.342 239.762 197.337L239.82 197.334C240.258 197.314 240.629 197.649 240.649 198.085C240.656 198.239 240.618 198.383 240.547 198.508L240.527 198.542C239.185 200.881 237.788 202.595 237.4 202.375L237.401 202.376Z" fill="#000072"/>
<path d="M250.367 210.571C249.921 210.563 249.6 208.381 249.647 205.689L250.85 206.415L250.815 206.436C249.829 206.972 249.211 207.845 248.811 208.556C248.408 209.27 248.194 209.785 247.967 209.774C247.748 209.769 247.547 209.159 247.724 208.181C247.817 207.697 248.013 207.12 248.386 206.545C248.755 205.973 249.317 205.409 250.024 205.022L250.073 204.992C250.447 204.767 250.935 204.886 251.161 205.258C251.241 205.389 251.278 205.535 251.276 205.679V205.717C251.219 208.409 250.814 210.577 250.368 210.569L250.367 210.571Z" fill="#000072"/>
<path d="M275.369 201.08C275.028 201.367 273.338 199.939 271.585 197.885L271.562 197.858C271.279 197.526 271.319 197.028 271.653 196.747C271.771 196.647 271.913 196.589 272.056 196.567L272.114 196.559C272.908 196.417 273.702 196.5 274.352 196.713C275.006 196.925 275.525 197.25 275.905 197.567C276.662 198.213 276.893 198.813 276.726 198.955C276.558 199.105 276.063 198.841 275.299 198.54C274.535 198.239 273.501 197.949 272.396 198.152L272.356 198.156L272.827 196.839C274.573 198.898 275.709 200.792 275.367 201.078L275.369 201.08Z" fill="#000072"/>
<path d="M335.735 96.5071C333.793 108.729 331.016 116.291 327.971 120.785C319.297 133.597 308.444 121.504 308.444 121.504C279.583 114.733 270.416 95.1935 267.516 83.0304C265.723 89.2048 265.723 93.9386 265.723 93.9386C256.352 88.5297 251.53 79.7326 249.117 73.096C246.891 83.4561 247.704 96.0661 247.704 96.0661C246.789 95.7627 245.933 95.4016 245.13 94.9923C245.436 97.1305 245.741 98.3701 245.741 98.3701C237.472 99.2157 231.254 97.2587 226.7 94.4396C226.561 97.1999 226.475 99.258 226.475 99.258C210.731 96.466 202.816 88.0899 198.851 80.7711C191.69 92.8331 191.155 104.752 191.155 104.752C182.336 99.5073 178.07 93.0565 176.219 86.9561L175.994 87.0255C172.468 102.965 178.172 115.442 178.306 115.744C174.019 114.452 170.712 112.41 168.144 109.996L167.823 110.331C169.251 120.409 171.922 128.552 174.823 134.908C161.872 126.089 160.117 110.778 160.117 110.778L154.401 120.771C153.122 114.645 152.447 108.31 152.447 101.827C152.447 48.2206 198.411 4.76416 255.104 4.76416C276.382 4.76416 296.144 10.8857 312.542 21.3682L312.59 21.2941C312.59 21.2941 313.526 9.94953 316.604 14.4704C319.681 18.9913 319.681 27.1016 319.681 27.1016C319.681 27.1016 340.284 23.6451 337.341 27.6332C334.398 31.6224 324.941 35.9669 324.941 35.9669C324.941 35.9669 343.227 49.439 335.735 96.506V96.5071Z" fill="#5C6A79"/>
<g opacity="0.6">
<path d="M316.604 14.4704C313.528 9.94953 312.59 21.2941 312.59 21.2941L312.542 21.3682C296.146 10.8857 276.382 4.76416 255.104 4.76416C230.506 4.76416 207.93 12.9485 190.25 26.59C189.336 27.1451 188.419 27.7578 187.51 28.4282C184.874 30.3711 182.674 32.5163 181.062 34.6003C163.341 52.0428 152.447 75.7304 152.447 101.824C152.447 108.307 153.122 114.641 154.401 120.769L155.358 119.099C154.849 115.179 154.588 111.191 154.588 107.142C154.588 83.0433 163.882 60.9976 179.262 44.0266C182.046 46.2294 189.099 44.3348 195.734 39.447C202.868 34.1887 206.813 27.4579 204.542 24.4154C204.439 24.2766 204.32 24.1519 204.195 24.0332C219.678 15.1796 237.832 10.0812 257.246 10.0812C278.524 10.0812 298.286 16.2028 314.684 26.6852L314.732 26.6111C314.732 26.6111 315.668 15.2666 318.746 19.7875C318.763 19.8145 318.778 19.8357 318.795 19.8616C318.34 17.9528 317.649 16.0052 316.606 14.4692L316.604 14.4704Z" fill="white"/>
</g>
<g opacity="0.3">
<path d="M197.399 67.5213L198.85 80.7699C191.689 92.8319 191.154 104.75 191.154 104.75C182.335 99.5062 178.069 93.0553 176.218 86.955L175.993 87.0244C172.467 102.964 178.172 115.441 178.306 115.743C174.019 114.451 170.712 112.409 168.143 109.995L167.822 110.33C169.25 120.408 171.921 128.551 174.822 134.906C161.87 126.088 160.115 110.777 160.115 110.777L154.4 120.77C153.602 116.94 153.035 113.031 152.73 109.054V109.048C153.886 98.0972 159.403 89.3271 159.403 89.3271C159.671 101.56 170.106 105.548 170.106 105.548C167.163 89.5929 174.655 78.9552 174.655 78.9552C175.007 82.0401 175.794 84.651 176.806 86.8527C180.429 94.7077 186.963 97.3034 186.963 97.3034C184.288 85.0709 197.399 67.5201 197.399 67.5201V67.5213Z" fill="#000072"/>
</g>
<g opacity="0.3">
<path d="M324.941 35.9669C324.941 35.9669 334.398 31.6212 337.341 27.6331C339.081 25.2715 332.584 25.522 326.986 26.1171L318.879 33.2172C318.879 33.2172 332.793 50.8585 325.478 76.9182C325.478 76.9182 320.284 77.5533 313.549 77.084C317.77 80.8157 325.034 81.7919 325.034 81.7919C325.034 81.7919 315.133 87.6418 303.092 83.1221C291.051 78.6012 287.752 71.2448 287.752 71.2448C292.515 74.2567 299.12 75.0941 302.722 75.3246C293.774 72.8748 285.25 67.506 283.694 56.0874C283.694 56.0874 261.351 61.4056 262.422 80.2865C262.422 80.2865 251.184 73.6381 254.663 61.4056C254.663 61.4056 238.876 70.1804 242.889 88.2639C242.889 88.2639 237.27 85.339 234.059 78.6906C234.059 78.6906 231.651 86.9337 237.003 94.1138C237.003 94.1138 221.216 89.5929 215.865 82.1471C215.865 82.1471 215.33 87.9969 219.075 93.3152C219.075 93.3152 209.748 93.4269 203.1 86.9067C207.756 92.2673 215.055 97.2292 226.476 99.2556C226.476 99.2556 226.561 97.1974 226.701 94.4372C231.255 97.2563 237.474 99.2133 245.742 98.3677C245.742 98.3677 245.437 97.1281 245.131 94.9899C245.934 95.3992 246.791 95.7615 247.705 96.0637C247.705 96.0637 246.892 83.4537 249.118 73.0936C251.531 79.7314 256.354 88.5273 265.724 93.9362C265.724 93.9362 265.724 89.2024 267.517 83.028C270.417 95.1911 279.584 114.731 308.445 121.501C308.445 121.501 319.298 133.595 327.972 120.783C331.017 116.289 333.795 108.725 335.738 96.5047C343.23 49.4366 324.944 35.9657 324.944 35.9657L324.941 35.9669Z" fill="#000072"/>
</g>
<path d="M198.849 80.7699C199.936 82.7692 201.311 84.8486 203.066 86.875C201.439 85.2684 199.973 83.2691 198.849 80.7699Z" fill="#000072"/>
<path d="M174.822 136.669C174.473 136.669 174.122 136.567 173.818 136.361C164.761 130.195 160.925 121.136 159.36 115.666L155.943 121.641C155.577 122.28 154.85 122.627 154.123 122.512C153.394 122.397 152.811 121.846 152.661 121.127C151.34 114.801 150.671 108.307 150.671 101.824C150.672 47.3326 197.519 3 255.105 3C275.083 3 294.394 8.32062 311.138 18.415C311.756 14.4092 312.917 12.1629 314.601 11.7242C315.487 11.4937 316.803 11.6125 318.075 13.4813C320.446 16.9637 321.156 22.1761 321.368 25.041C337.134 22.5924 338.564 24.8952 339.046 25.6726C339.314 26.103 339.82 27.2568 338.774 28.6751C336.502 31.7553 331.144 34.8155 328.004 36.4326C332.734 41.5898 343.643 58.1338 337.491 96.7812C335.684 108.15 332.978 116.557 329.445 121.769C326.637 125.918 323.275 128.152 319.453 128.41C313.714 128.801 308.917 124.492 307.523 123.096C282.785 117.118 272.286 101.818 267.831 90.0727C267.51 92.4261 267.5 93.9127 267.5 93.9385C267.5 94.5689 267.159 95.1511 266.609 95.4651C266.057 95.7791 265.381 95.7779 264.834 95.4616C257.493 91.2241 252.839 85.0332 249.917 79.3527C248.971 87.7382 249.472 95.8509 249.478 95.9508C249.516 96.5365 249.257 97.1022 248.789 97.4609C248.401 97.7585 247.912 97.8808 247.434 97.8067C247.454 97.8972 247.466 97.9455 247.466 97.9478C247.588 98.443 247.487 98.9663 247.192 99.3827C246.896 99.799 246.433 100.068 245.923 100.121C239.404 100.786 233.503 99.8554 228.338 97.3504C228.282 98.5653 228.25 99.325 228.25 99.3274C228.229 99.8366 227.987 100.311 227.587 100.63C227.187 100.95 226.669 101.082 226.164 100.992C211.415 98.3759 203.311 90.9572 198.913 84.3123C193.457 94.8806 192.934 104.723 192.929 104.83C192.901 105.45 192.545 106.01 191.995 106.304C191.445 106.598 190.78 106.583 190.244 106.264C184.178 102.657 179.689 98.2089 176.839 92.9953C175.664 105.006 179.427 113.906 179.921 115.012C180.203 115.642 180.092 116.387 179.632 116.904C179.173 117.42 178.456 117.632 177.79 117.432C175.001 116.591 172.46 115.402 170.192 113.879C171.515 121.168 173.61 127.98 176.438 134.177C176.767 134.898 176.572 135.748 175.962 136.258C175.635 136.532 175.229 136.67 174.822 136.67V136.669ZM160.115 109.011C160.234 109.011 160.353 109.023 160.472 109.048C161.224 109.201 161.792 109.818 161.879 110.577C161.893 110.695 163.147 120.63 170.425 128.722C168.431 123.041 166.97 116.965 166.063 110.575C165.987 110.042 166.161 109.503 166.535 109.112L166.856 108.777C167.531 108.073 168.65 108.045 169.361 108.713C171.09 110.338 173.084 111.68 175.317 112.723C173.747 107.634 171.749 97.9831 174.258 86.6456C174.396 86.0258 174.857 85.5272 175.467 85.339L175.691 85.2696C176.143 85.1308 176.632 85.1767 177.05 85.3966C177.468 85.6177 177.78 85.9953 177.916 86.4445C179.742 92.4626 183.696 97.5891 189.683 101.711C190.292 97.3221 192.093 88.6756 197.319 79.8714C197.645 79.3233 198.242 78.9952 198.883 79.0034C199.523 79.0152 200.107 79.3704 200.412 79.9314C203.787 86.1587 210.733 94.0538 224.791 97.1234C224.826 96.3495 224.871 95.3992 224.925 94.3466C224.955 93.7221 225.318 93.1611 225.875 92.8718C226.432 92.5825 227.102 92.6072 227.636 92.9377C232.213 95.7709 237.581 97.0505 243.609 96.7588C243.534 96.3154 243.452 95.8062 243.37 95.2358C243.277 94.583 243.559 93.9338 244.099 93.5516C244.602 93.1953 245.252 93.127 245.815 93.3623C245.703 89.0002 245.743 80.3418 247.38 72.7243C247.545 71.954 248.205 71.3859 248.995 71.333C249.774 71.2777 250.516 71.7528 250.786 72.4938C252.832 78.1225 256.776 85.6189 264.153 90.836C264.377 88.7849 264.842 85.8671 265.808 82.5387C266.031 81.7684 266.749 81.2568 267.557 81.2639C268.364 81.2827 269.055 81.8401 269.241 82.6211C271.87 93.6469 280.512 113.137 308.849 119.784C309.203 119.868 309.524 120.057 309.767 120.328C309.809 120.375 314.267 125.234 319.222 124.888C321.888 124.703 324.336 122.99 326.496 119.798C329.737 115.016 332.255 107.086 333.981 96.2296C341.222 50.7432 324.057 37.5111 323.883 37.3829C323.38 37.0124 323.111 36.4044 323.175 35.7858C323.238 35.166 323.627 34.6261 324.195 34.3651C326.451 33.3277 332.32 30.2829 335.087 27.5261C332.25 27.2544 325.617 27.893 319.975 28.8398C319.463 28.9268 318.933 28.7822 318.534 28.4482C318.136 28.113 317.905 27.6202 317.905 27.1015C317.905 27.0286 317.866 19.9568 315.392 15.8629C314.963 17.1095 314.532 19.3453 314.358 21.4375C314.333 21.7245 314.24 22.002 314.084 22.2443L314.035 22.3184C313.781 22.7124 313.38 22.9911 312.919 23.0899C312.459 23.1899 311.977 23.1028 311.581 22.85C294.878 12.1723 275.348 6.52826 255.105 6.52826C199.478 6.52826 154.222 49.2778 154.222 101.825C154.222 106.456 154.577 111.092 155.279 115.663L158.572 109.905C158.893 109.346 159.486 109.012 160.115 109.012V109.011Z" fill="#000072"/>
<path d="M267.514 85.085C266.371 85.085 265.443 84.1664 265.443 83.0292V83.0245C265.443 81.8872 266.371 80.9663 267.514 80.9663C268.657 80.9663 269.585 81.8872 269.585 83.0245C269.585 84.1617 268.657 85.085 267.514 85.085Z" fill="#000072"/>
<path d="M324.944 35.9657C324.944 35.9657 342.069 49.7941 328.512 97.6597L338.947 104.485C353.396 48.6416 324.944 35.9657 324.944 35.9657Z" fill="white"/>
<path d="M338.947 106.249C338.605 106.249 338.265 106.15 337.971 105.958L327.535 99.1334C326.889 98.7112 326.593 97.922 326.803 97.1822C339.8 51.2913 323.976 37.4617 323.815 37.3277C323.136 36.762 322.975 35.7811 323.446 35.0355C323.917 34.2898 324.861 33.9958 325.672 34.3581C325.985 34.498 333.412 37.8993 338.94 48.4723C346.191 62.3395 346.772 81.3321 340.667 104.926C340.523 105.477 340.122 105.926 339.587 106.132C339.38 106.212 339.164 106.251 338.947 106.251V106.249ZM330.567 96.8918L337.829 101.641C344.269 74.9871 340.399 59.0759 335.923 50.3575C334.804 48.1771 333.593 46.3294 332.39 44.7758C335.794 53.9258 337.944 70.1311 330.567 96.8906V96.8918Z" fill="#000072"/>
<path d="M337.662 191.307C336.372 198.561 324.492 200.555 324.492 200.555L323.78 200.726C318.745 179.82 307.603 178.437 307.603 178.437L307.593 178.384C296.419 180.33 280.219 186.382 264.379 203.827C264.379 203.827 248.063 212.88 236.327 195.1L236.337 194.838C239.49 194.988 242.518 194.955 245.334 194.807L245.344 195.051C247.78 198.466 254.078 201.125 254.078 201.125C254.078 201.125 257.331 197.418 262.934 192.344C274.451 181.914 295.895 165.694 319.318 164.066C324.599 163.699 329.978 164.072 335.372 165.422C335.372 165.422 338.09 169.544 333.226 173.952C333.226 173.952 337.801 178.931 332.221 182.063C332.221 182.063 338.947 184.051 337.663 191.306L337.662 191.307Z" fill="#3BAFCA"/>
<g opacity="0.2">
<path d="M324.55 189.775C330.132 186.642 325.556 181.665 325.556 181.665C330.421 177.256 327.701 173.134 327.701 173.134C322.307 171.783 316.929 171.411 311.647 171.778C288.224 173.406 266.781 189.626 255.264 200.056C254.82 200.457 254.396 200.847 253.983 201.229C251.576 200.265 244.444 197.19 241.683 193.567C241.683 193.567 241.161 201.311 249.583 205.482C252.667 207.01 254.188 206.888 254.88 206.123C260.361 206.049 264.378 203.825 264.378 203.825C280.218 186.38 296.418 180.328 307.591 178.382L307.602 178.434C307.602 178.434 318.744 179.818 323.779 200.724L324.491 200.553C324.491 200.553 327.101 200.114 330.006 198.902C331.199 191.742 324.547 189.772 324.547 189.772L324.55 189.775Z" fill="#000072"/>
</g>
<path d="M254.552 207.854C248.554 207.854 241.052 205.476 234.842 196.068C234.639 195.761 234.538 195.397 234.552 195.03L234.562 194.769C234.581 194.299 234.788 193.857 235.136 193.538C235.485 193.22 235.948 193.051 236.42 193.077C239.302 193.212 242.269 193.203 245.238 193.045C245.709 193.02 246.175 193.184 246.525 193.501C246.786 193.735 246.967 194.04 247.052 194.373C248.605 196.266 251.696 198.032 253.634 198.98C254.973 197.539 257.762 194.64 261.736 191.04C272.786 181.031 294.946 163.991 319.191 162.306C324.904 161.908 330.494 162.381 335.804 163.711C336.236 163.819 336.611 164.085 336.855 164.454C337.974 166.151 338.964 170.171 335.538 174.119C336.245 175.273 337.006 177.038 336.694 178.981C336.57 179.758 336.237 180.73 335.437 181.699C337.908 183.401 340.299 186.588 339.409 191.613C337.957 199.782 325.959 202.087 324.85 202.283L324.194 202.44C323.736 202.549 323.253 202.473 322.85 202.228C322.449 201.983 322.162 201.59 322.052 201.134C317.645 182.839 308.441 180.408 307.447 180.199C296.827 182.134 281.109 188.03 265.694 205.006C265.564 205.149 265.411 205.27 265.241 205.365C265.152 205.414 260.621 207.852 254.55 207.852L254.552 207.854ZM239.689 196.696C249.48 208.7 261.368 203.378 263.271 202.414C279.515 184.629 296.16 178.583 307.285 176.646C307.655 176.581 308.018 176.636 308.336 176.781C310.679 177.314 320.215 180.561 325.079 198.64C328.483 197.875 335.114 195.495 335.913 191C336.882 185.52 332.235 183.916 331.701 183.752C331.025 183.542 330.533 182.952 330.459 182.252C330.384 181.552 330.728 180.874 331.345 180.527C332.438 179.914 333.057 179.21 333.186 178.436C333.403 177.133 332.337 175.612 331.908 175.137C331.258 174.416 331.309 173.302 332.029 172.649C334.776 170.16 334.495 167.958 334.137 166.939C329.431 165.849 324.493 165.475 319.44 165.826C296.266 167.436 274.838 183.948 264.129 193.648C258.678 198.584 255.446 202.248 255.414 202.286C254.909 202.861 254.089 203.046 253.382 202.749C253.119 202.638 247.214 200.117 244.317 196.621C242.768 196.685 241.221 196.71 239.688 196.697L239.689 196.696Z" fill="#000072"/>
<path d="M307.323 245.937C304.092 245.937 301.456 245.276 299.828 244.319C298.985 243.823 298.705 242.741 299.205 241.902C299.704 241.063 300.794 240.788 301.637 241.282C304.614 243.035 316.899 244.268 328.066 232.486C338.396 221.59 323.188 204.613 323.034 204.442C322.82 204.207 322.673 203.918 322.609 203.607C322.425 202.701 322.246 201.899 322.06 201.153C321.823 200.207 322.403 199.25 323.354 199.015C324.306 198.78 325.269 199.356 325.505 200.301C325.672 200.966 325.831 201.669 325.992 202.438C332.1 209.335 340.535 224.478 330.65 234.905C322.738 243.256 313.828 245.937 307.324 245.937H307.323Z" fill="#000072"/>
<path d="M296.059 245.409C295.367 245.409 294.65 245.329 293.913 245.168C293.593 245.101 293.266 245.017 292.943 244.918C292.339 244.732 291.989 244.106 292.148 243.497C292.192 243.33 296.376 226.769 284.702 220.856C284.677 220.843 284.65 220.828 284.623 220.811C284.515 220.755 284.426 220.714 284.338 220.671C283.926 220.475 283.664 220.062 283.665 219.608C283.665 219.154 283.929 218.741 284.342 218.547C284.348 218.545 284.358 218.54 284.367 218.536C285.187 218.102 293.469 214.001 300.704 221.046C305.311 225.532 306.595 234.962 303.399 240.829C301.776 243.807 299.168 245.407 296.059 245.407V245.409ZM294.686 242.925C298.338 243.612 300.304 241.57 301.317 239.712C304.02 234.75 302.917 226.496 299.047 222.729C294.813 218.606 290.177 219.05 287.56 219.802C296.995 226.097 295.425 238.987 294.686 242.926V242.925Z" fill="#000072"/>
<path d="M291.159 217.157C291.75 216.256 292.395 215.386 293.243 214.718C293.631 214.355 294.103 214.089 294.539 213.805C295.007 213.564 295.466 213.328 295.956 213.168C296.921 212.826 297.912 212.644 298.889 212.596C299.87 212.554 300.825 212.617 301.776 212.827C301.9 212.854 301.979 212.976 301.951 213.1C301.928 213.205 301.833 213.278 301.728 213.28H301.71C300.819 213.285 299.905 213.429 299.057 213.662C298.204 213.899 297.401 214.251 296.695 214.7C296.334 214.914 296.02 215.187 295.709 215.445C295.431 215.743 295.128 216.003 294.911 216.341C294.411 216.952 294.11 217.696 293.834 218.414L293.802 218.497C293.509 219.261 292.646 219.646 291.877 219.354C291.107 219.062 290.721 218.205 291.014 217.441C291.052 217.342 291.104 217.243 291.16 217.158L291.159 217.157Z" fill="#000072"/>
<path d="M293.32 219.222C293.078 219.222 292.839 219.125 292.664 218.934C292.437 218.686 292.226 218.444 292.016 218.197C278.613 202.407 290.711 183.893 290.836 183.707C291.107 183.301 291.657 183.192 292.065 183.46C292.473 183.729 292.585 184.276 292.314 184.682C292.198 184.856 280.837 202.291 293.371 217.057C293.567 217.287 293.762 217.514 293.974 217.744C294.304 218.104 294.278 218.663 293.916 218.991C293.746 219.145 293.531 219.221 293.318 219.221L293.32 219.222Z" fill="#000072"/>
<path d="M307.336 176.936C308.573 176.829 309.808 176.74 311.043 176.704C312.278 176.659 313.514 176.669 314.745 176.702C315.977 176.749 317.204 176.829 318.424 176.964C319.647 177.103 320.853 177.274 322.065 177.556C322.222 177.592 322.32 177.75 322.283 177.906C322.25 178.048 322.119 178.139 321.978 178.13H321.964C320.788 178.051 319.578 178.075 318.389 178.135C317.196 178.198 316.008 178.313 314.827 178.462C313.646 178.623 312.472 178.805 311.31 179.041C310.145 179.266 308.993 179.542 307.848 179.833L307.832 179.838C307.036 180.039 306.228 179.562 306.026 178.772C305.823 177.982 306.303 177.178 307.098 176.977C307.175 176.957 307.26 176.944 307.337 176.937L307.336 176.936Z" fill="#000072"/>
<path d="M245.331 196.865C244.236 196.865 243.321 196.011 243.265 194.911C243.207 193.777 244.086 192.809 245.228 192.752C254.537 192.284 261.468 190.593 262.383 190.361C262.569 190.309 262.762 190.282 262.95 190.282C264.093 190.282 265.021 191.203 265.021 192.341C265.021 193.272 264.398 194.059 263.544 194.313C263.512 194.322 263.48 194.332 263.448 194.34C262.638 194.547 255.273 196.37 245.437 196.864C245.401 196.865 245.366 196.866 245.33 196.866L245.331 196.865Z" fill="#000072"/>
<path d="M257.293 214.664C242.511 214.664 230.592 205.789 230.158 194.46C230.139 193.973 230.521 193.564 231.011 193.545C231.476 193.535 231.913 193.906 231.932 194.393C232.329 204.771 243.47 212.901 257.293 212.901C271.117 212.901 287.109 200.272 287.109 189.603C287.109 188.31 286.863 187.074 286.377 185.927C286.186 185.478 286.399 184.961 286.85 184.772C287.304 184.583 287.821 184.795 288.012 185.243C288.59 186.607 288.883 188.074 288.883 189.603C288.883 201.314 272.054 214.665 257.292 214.665L257.293 214.664Z" fill="#000072"/>
<path d="M320.472 29.0315C320.034 29.0315 319.592 28.8939 319.217 28.6093L318.402 27.9859C317.493 27.2956 317.32 26.003 318.015 25.101C318.711 24.1989 320.009 24.026 320.918 24.7164L321.73 25.3374C322.64 26.0266 322.814 27.3191 322.12 28.2223C321.713 28.7527 321.097 29.0315 320.472 29.0315Z" fill="#000072"/>
<path d="M166.922 111.275L165.84 109.995L165.304 109.356L164.827 108.674L163.889 107.31L163.079 105.877C162.047 103.952 161.213 101.947 160.648 99.8825C160.063 97.8267 159.668 95.738 159.462 93.6434C159.263 91.5488 159.215 89.4471 159.403 87.3737C159.511 89.4506 159.854 91.4982 160.337 93.4964C160.827 95.4934 161.493 97.4351 162.318 99.2827C163.121 101.141 164.162 102.874 165.333 104.467L166.235 105.639L167.235 106.721L167.732 107.257L168.279 107.742L169.361 108.71L169.48 108.816C170.212 109.47 170.272 110.591 169.614 111.319C168.956 112.047 167.828 112.106 167.095 111.452C167.035 111.398 166.973 111.333 166.922 111.274V111.275Z" fill="#000072"/>
<path d="M174.519 87.4642C174.171 85.6377 173.887 83.8148 173.865 81.9872C173.807 81.0781 173.874 80.1666 173.889 79.2657C173.971 78.3636 174.017 77.4663 174.164 76.5795C174.407 74.8036 174.787 73.0583 175.303 71.3648C175.817 69.6724 176.443 68.0176 177.24 66.4581C176.719 68.1258 176.387 69.8359 176.172 71.5471C175.954 73.2583 175.878 74.9777 175.936 76.6771C175.94 77.5263 176.043 78.3719 176.108 79.2104C176.238 80.0455 176.316 80.8805 176.513 81.6955C176.811 83.3397 177.351 84.9156 177.919 86.4469L177.946 86.521C178.287 87.4395 177.813 88.4592 176.889 88.7979C175.965 89.1366 174.939 88.6662 174.598 87.7477C174.565 87.6571 174.538 87.5559 174.519 87.4642Z" fill="#000072"/>
<path d="M197.182 81.3732C196.89 80.0865 196.637 78.8034 196.504 77.5074C196.341 76.2184 196.315 74.9176 196.328 73.6369C196.358 72.3526 196.484 71.0789 196.697 69.8311C196.915 68.5844 197.211 67.3531 197.669 66.1923C197.498 67.4236 197.504 68.6609 197.583 69.8793C197.67 71.0977 197.84 72.3009 198.097 73.4781C198.371 74.653 198.676 75.8079 199.102 76.9217C199.498 78.0413 199.999 79.1163 200.519 80.1653L200.535 80.1971C200.971 81.078 200.607 82.1447 199.719 82.5775C198.833 83.0115 197.76 82.6492 197.323 81.7672C197.261 81.6413 197.213 81.5037 197.183 81.3732H197.182Z" fill="#000072"/>
<path d="M225.761 95.9356C224.609 95.0135 223.495 94.0668 222.506 93.0059C221.495 91.971 220.591 90.8502 219.765 89.6941C218.934 88.5403 218.204 87.3278 217.561 86.0835C216.921 84.8392 216.359 83.5584 215.953 82.2377C216.631 83.4396 217.44 84.551 218.305 85.6001C219.171 86.6492 220.102 87.6347 221.101 88.5321C222.095 89.433 223.135 90.2692 224.237 90.9948C225.319 91.7475 226.481 92.3626 227.636 92.9389L227.684 92.9636C228.566 93.4046 228.922 94.4713 228.478 95.3487C228.035 96.226 226.96 96.5789 226.078 96.139C225.966 96.0826 225.855 96.0108 225.76 95.9356H225.761Z" fill="#000072"/>
<path d="M252.519 64.8622C251.603 66.1147 251.102 67.5448 250.861 68.9632C250.618 70.3839 250.67 71.8105 250.889 73.1724L250.891 73.096C250.891 74.0698 250.096 74.8601 249.116 74.8601C248.136 74.8601 247.341 74.0698 247.341 73.096L247.343 73.0031C247.73 71.3365 248.331 69.7347 249.207 68.3246C250.071 66.9192 251.193 65.6843 252.519 64.8622Z" fill="#000072"/>
<path d="M233.613 77.2699C234.027 79.0493 234.653 80.7652 235.394 82.4082C236.143 84.0488 237.045 85.6048 238.078 87.0361C239.092 88.4838 240.329 89.7375 241.634 90.8337L242.641 91.6169C242.994 91.8522 243.361 92.065 243.715 92.2897L244.247 92.6213L244.817 92.8883L245.94 93.4222L246.101 93.4987C246.99 93.9221 247.367 94.9805 246.941 95.865C246.515 96.7494 245.45 97.1234 244.56 96.7C244.476 96.66 244.389 96.6094 244.315 96.5589L243.07 95.7038L242.454 95.2757L241.888 94.7865C241.514 94.4572 241.134 94.1396 240.774 93.8033L239.769 92.7236C238.494 91.2441 237.384 89.6552 236.556 87.9464C235.708 86.2516 235.045 84.4934 234.556 82.7034C234.076 80.9134 233.733 79.094 233.611 77.2687L233.613 77.2699Z" fill="#000072"/>
<path d="M249.116 75.1505C247.973 75.1505 247.045 74.232 247.045 73.0947V73.09C247.045 71.9527 247.973 71.0319 249.116 71.0319C250.259 71.0319 251.187 71.9527 251.187 73.09C251.187 74.2273 250.259 75.1505 249.116 75.1505Z" fill="#000072"/>
<path d="M265.739 83.0291V82.8868C265.739 82.7633 265.764 82.6434 265.808 82.5364C267.899 77.4321 270.861 72.7219 274.636 68.9408C271.791 73.457 270.068 78.4636 269.22 83.5113L269.289 83.0244V83.0291C269.289 84.0041 268.494 84.7933 267.514 84.7933C266.535 84.7933 265.739 84.0041 265.739 83.0291Z" fill="#000072"/>
<path d="M185.528 85.0896C185.355 86.7926 185.456 88.5144 185.713 90.1856C185.974 91.8568 186.387 93.4951 186.997 95.0476C187.605 96.5965 188.317 98.0936 189.234 99.4579C189.65 100.162 190.175 100.799 190.66 101.449C191.157 102.092 191.738 102.674 192.264 103.284L192.382 103.421C193.024 104.166 192.937 105.285 192.188 105.923C191.439 106.56 190.312 106.473 189.671 105.729C189.612 105.661 189.554 105.581 189.508 105.507C189.019 104.72 188.49 103.972 188.053 103.165C187.628 102.35 187.175 101.561 186.841 100.708C186.089 99.051 185.581 97.2998 185.21 95.5509C184.836 93.7986 184.689 92.0144 184.703 90.2538C184.723 88.4921 184.91 86.7409 185.367 85.0544C185.379 85.0108 185.424 84.985 185.468 84.9967C185.507 85.0073 185.533 85.045 185.528 85.0838V85.0896Z" fill="#000072"/>
<path d="M256.622 203.672C256.622 203.672 257.247 210.586 261.885 217.234L256.622 203.672Z" fill="#FF0660"/>
<path d="M261.886 218.704C261.417 218.704 260.956 218.483 260.669 218.071C255.864 211.184 255.176 204.101 255.149 203.803C255.076 202.994 255.677 202.28 256.49 202.207C257.301 202.136 258.022 202.73 258.096 203.538C258.106 203.647 258.772 210.192 263.1 216.395C263.565 217.062 263.398 217.978 262.727 218.441C262.471 218.618 262.176 218.704 261.886 218.704Z" fill="#000072"/>
<path d="M246.366 200.747C246.366 200.747 242.084 205.711 241.907 213.866L246.366 200.747Z" fill="#FF0660"/>
<path d="M241.907 215.337C241.896 215.337 241.884 215.337 241.873 215.337C241.057 215.319 240.41 214.647 240.427 213.835C240.616 205.253 245.053 200.01 245.243 199.791C245.775 199.175 246.709 199.104 247.329 199.632C247.948 200.159 248.021 201.086 247.492 201.702C247.428 201.777 243.549 206.438 243.386 213.899C243.368 214.7 242.71 215.338 241.908 215.338L241.907 215.337Z" fill="#000072"/>
<path d="M240.171 213.288L243.773 213.875C244.205 213.945 244.51 214.333 244.475 214.767L244.167 218.498C244.127 218.986 243.673 219.335 243.188 219.253L239.186 218.574C238.721 218.495 238.412 218.052 238.502 217.592L239.21 213.953C239.296 213.51 239.722 213.215 240.171 213.288Z" fill="white"/>
<path d="M243.327 220.441C243.213 220.441 243.099 220.431 242.987 220.413L238.986 219.734C238.444 219.642 237.974 219.345 237.662 218.895C237.349 218.447 237.234 217.905 237.339 217.369L238.046 213.73C238.256 212.653 239.272 211.952 240.361 212.127L243.963 212.714C244.996 212.881 245.738 213.825 245.653 214.863L245.346 218.593C245.299 219.155 245.017 219.674 244.569 220.019C244.213 220.294 243.774 220.441 243.328 220.441H243.327ZM239.729 217.474L243.017 218.031L243.267 214.985L240.307 214.503L239.729 217.474Z" fill="#000072"/>
<path d="M259.172 217.357L262.389 215.642C262.775 215.437 263.255 215.56 263.493 215.926L265.534 219.071C265.802 219.482 265.656 220.034 265.221 220.262L261.63 222.146C261.214 222.365 260.697 222.2 260.486 221.782L258.819 218.467C258.615 218.063 258.772 217.571 259.174 217.357H259.172Z" fill="white"/>
<path d="M261.24 223.421C261.032 223.421 260.822 223.389 260.619 223.323C260.096 223.156 259.673 222.795 259.427 222.307L257.758 218.993C257.266 218.012 257.64 216.838 258.613 216.321L261.829 214.606C262.752 214.116 263.919 214.415 264.487 215.29L266.528 218.434C266.835 218.907 266.928 219.489 266.785 220.034C266.642 220.577 266.273 221.039 265.773 221.303L262.182 223.187C261.886 223.342 261.564 223.421 261.24 223.421ZM260.026 218.238L261.388 220.945L264.337 219.398L262.669 216.829L260.026 218.238Z" fill="#000072"/>
<path d="M244.156 162.46C243.211 164.451 241.847 166.156 240.241 167.663C238.633 169.16 236.739 170.418 234.62 171.263C232.519 172.129 230.158 172.523 227.869 172.292C226.727 172.173 225.605 171.918 224.56 171.497C223.509 171.095 222.535 170.536 221.669 169.854C221.475 169.701 221.442 169.42 221.596 169.227C221.694 169.103 221.844 169.046 221.991 169.06L222.009 169.062C224.119 169.28 226.047 169.462 227.929 169.286C229.804 169.146 231.616 168.749 233.384 168.099C235.153 167.455 236.862 166.548 238.524 165.49C240.183 164.433 241.817 163.217 243.401 161.92L243.428 161.898C243.63 161.733 243.928 161.761 244.093 161.961C244.214 162.106 244.232 162.301 244.156 162.461V162.46Z" fill="#000072"/>
<path d="M227.916 114.123C227.258 110.832 227.858 107.167 229.779 104.058C230.749 102.516 232.065 101.114 233.713 100.086C235.349 99.0522 237.328 98.4288 239.341 98.3783C241.355 98.3289 243.386 98.8663 245.111 99.8366C246.856 100.788 248.298 102.151 249.409 103.685C251.634 106.768 252.573 110.546 252.287 114.121C252.209 115.095 251.352 115.822 250.373 115.744C249.506 115.676 248.834 115.002 248.744 114.174L248.738 114.121C248.42 111.228 247.482 108.47 245.821 106.322C244.999 105.252 244.005 104.357 242.91 103.709C241.805 103.077 240.595 102.706 239.341 102.653C236.837 102.553 234.281 103.814 232.355 105.95C231.373 107 230.565 108.264 229.909 109.642C229.251 111.022 228.784 112.527 228.424 114.123V114.128C228.391 114.267 228.254 114.354 228.114 114.324C228.011 114.3 227.936 114.219 227.916 114.123Z" fill="#000072"/>
<path d="M209.615 119.865C208.813 118.438 207.933 117.129 206.906 115.991C205.883 114.858 204.745 113.874 203.503 113.146C201.045 111.645 198.233 111.16 195.861 111.966C194.675 112.371 193.621 113.07 192.743 113.988C191.879 114.92 191.183 116.058 190.702 117.317C189.728 119.847 189.619 122.756 190.143 125.62L190.153 125.672C190.329 126.633 189.688 127.553 188.721 127.729C187.866 127.883 187.043 127.403 186.742 126.626C185.443 123.28 185.258 119.393 186.507 115.807C187.133 114.021 188.123 112.307 189.523 110.9C190.898 109.481 192.691 108.39 194.635 107.867C196.58 107.345 198.654 107.382 200.521 107.909C202.394 108.427 204.058 109.399 205.431 110.601C208.163 113.038 209.789 116.382 210.103 119.722C210.116 119.863 210.011 119.988 209.869 120.002C209.764 120.011 209.668 119.957 209.62 119.871L209.616 119.865H209.615Z" fill="#000072"/>
<path d="M285.211 221.851C284.824 221.851 284.433 221.744 284.086 221.519C284.036 221.488 283.984 221.457 283.932 221.426L283.813 221.356C282.835 220.768 282.522 219.501 283.114 218.53C283.707 217.557 284.983 217.248 285.958 217.835L286.045 217.886C286.143 217.944 286.243 218.003 286.339 218.065C287.298 218.684 287.572 219.959 286.949 220.911C286.553 221.519 285.888 221.85 285.21 221.85L285.211 221.851Z" fill="#000072"/>
<path d="M285.521 222.041C285.138 222.041 284.749 221.936 284.403 221.714C284.336 221.672 284.263 221.625 284.198 221.587C283.21 221.016 282.875 219.755 283.45 218.773C284.025 217.79 285.295 217.457 286.282 218.03C286.399 218.097 286.528 218.178 286.644 218.252C287.606 218.867 287.884 220.14 287.265 221.096C286.87 221.707 286.203 222.04 285.522 222.04L285.521 222.041Z" fill="#000072"/>
<path d="M328.275 91.5146C327.115 92.5566 325.673 94.2501 324.921 96.6717L341.572 110.991L344.075 102.324C344.385 101.25 344.211 100.092 343.577 99.1697C342.023 96.9128 338.448 92.8118 331.98 90.7572C330.695 90.3491 329.276 90.616 328.275 91.5146Z" fill="#3BAFCA"/>
<path d="M342.511 114.131L322.885 97.2516L323.227 96.1508C324.108 93.3094 325.812 91.3489 327.086 90.2057C328.535 88.905 330.618 88.4722 332.521 89.0767C339.489 91.2901 343.356 95.7263 345.043 98.1737C345.974 99.5262 346.244 101.216 345.782 102.811L342.513 114.131H342.511ZM327.017 96.1402L340.632 107.849L342.368 101.837C342.536 101.256 342.443 100.648 342.111 100.167C340.683 98.0925 337.397 94.3314 331.439 92.4379C330.734 92.2145 329.979 92.3627 329.466 92.8237C328.69 93.5199 327.702 94.6196 327.017 96.1402Z" fill="#000072"/>
<path d="M341.674 133.321C334.998 147.124 319.978 153.725 308.128 148.063C296.277 142.403 292.081 126.623 298.756 112.821C305.432 99.0181 320.45 92.4167 332.302 98.0784C344.154 103.739 348.349 119.518 341.674 133.321Z" fill="#3BAFCA"/>
<g opacity="0.2">
<path d="M314.763 143.064C302.912 137.403 298.716 121.624 305.392 107.821C307 104.496 309.094 101.595 311.51 99.1769C306.291 102.027 301.708 106.718 298.756 112.821C292.081 126.624 296.276 142.403 308.128 148.063C317.125 152.361 327.945 149.586 335.557 141.964C328.972 145.559 321.376 146.222 314.764 143.063L314.763 143.064Z" fill="#000072"/>
</g>
<path d="M317.172 151.865C313.77 151.865 310.445 151.128 307.358 149.653C301.15 146.688 296.683 141.11 294.778 133.945C292.901 126.883 293.745 119.109 297.156 112.055C300.568 105.001 306.149 99.4896 312.871 96.5353C319.69 93.5375 326.864 93.521 333.071 96.4871C339.28 99.452 343.747 105.03 345.652 112.194C347.529 119.256 346.685 127.03 343.274 134.084C339.862 141.138 334.281 146.65 327.559 149.604C324.131 151.11 320.613 151.864 317.172 151.864V151.865ZM323.255 97.8102C320.301 97.8102 317.271 98.4617 314.306 99.7648C308.356 102.379 303.402 107.288 300.356 113.586C297.31 119.884 296.548 126.795 298.211 133.046C299.846 139.195 303.641 143.965 308.897 146.474C314.152 148.985 320.269 148.951 326.124 146.379C332.074 143.765 337.028 138.856 340.074 132.558C343.12 126.26 343.882 119.349 342.219 113.098C340.584 106.948 336.789 102.181 331.533 99.6696C328.939 98.43 326.134 97.8102 323.255 97.8102Z" fill="#000072"/>
<path d="M342.196 131.637C336.617 143.172 324.066 148.688 314.161 143.956C304.257 139.225 300.75 126.039 306.329 114.504C311.907 102.969 324.459 97.4527 334.363 102.184C344.267 106.915 347.773 120.102 342.194 131.637H342.196Z" fill="#F9ED32"/>
<g opacity="0.2">
<path d="M320.385 138.958C311.206 134.227 307.955 121.04 313.126 109.505C314.234 107.033 315.641 104.841 317.255 102.963C312.784 105.329 308.847 109.302 306.33 114.505C300.751 126.04 304.258 139.226 314.162 143.957C322.847 148.106 333.566 144.374 339.836 135.616C334.11 140.63 326.674 142.198 320.386 138.958H320.385Z" fill="#000072"/>
</g>
<path d="M321.72 147.131C318.878 147.131 316.099 146.514 313.52 145.283C308.334 142.805 304.601 138.144 303.009 132.159C301.44 126.259 302.146 119.763 304.998 113.869C307.847 107.975 312.511 103.37 318.127 100.901C323.826 98.3971 329.819 98.383 335.006 100.86C340.193 103.338 343.926 107.999 345.517 113.984C347.087 119.884 346.38 126.38 343.529 132.274C340.678 138.168 336.016 142.773 330.399 145.242C327.536 146.5 324.596 147.131 321.721 147.131H321.72ZM326.803 101.957C324.334 101.957 321.801 102.502 319.323 103.591C314.349 105.776 310.208 109.879 307.663 115.143C305.117 120.408 304.48 126.183 305.869 131.409C307.235 136.549 310.408 140.535 314.801 142.633C319.195 144.733 324.308 144.703 329.201 142.553C334.173 140.368 338.315 136.265 340.861 131.001C343.406 125.736 344.043 119.961 342.655 114.735C341.288 109.596 338.115 105.609 333.722 103.511C331.553 102.475 329.209 101.957 326.802 101.957H326.803Z" fill="#000072"/>
<path d="M333.884 126.478C336.073 121.952 334.697 116.779 330.811 114.923C326.926 113.067 322.002 115.231 319.813 119.757C317.625 124.282 319.001 129.455 322.886 131.311C326.772 133.167 331.696 131.003 333.884 126.478Z" fill="#F9ED32"/>
<path d="M325.834 133.443C324.61 133.443 323.391 133.185 322.247 132.638C317.633 130.434 315.944 124.371 318.482 119.122C321.022 113.873 326.842 111.398 331.454 113.6C336.068 115.804 337.757 121.867 335.218 127.116C333.309 131.063 329.545 133.442 325.833 133.442L325.834 133.443ZM327.846 115.73C325.248 115.73 322.55 117.499 321.149 120.396C319.318 124.183 320.384 128.486 323.528 129.988C326.673 131.49 330.721 129.63 332.552 125.843C334.383 122.056 333.316 117.753 330.172 116.251C329.433 115.898 328.643 115.73 327.844 115.73H327.846Z" fill="#000072"/>
<path d="M339.534 134.619C339.68 134.756 338.98 135.837 337.438 137.226C336.655 137.899 335.68 138.674 334.471 139.351C333.279 140.046 331.877 140.687 330.321 141.109C328.769 141.537 327.229 141.745 325.827 141.722C324.427 141.676 323.169 141.507 322.165 141.175C320.142 140.559 319.112 139.732 319.202 139.567C319.312 139.337 320.493 139.769 322.416 140.059C323.373 140.23 324.532 140.265 325.801 140.232C327.074 140.174 328.461 139.941 329.879 139.552C331.301 139.168 332.608 138.618 333.757 138.041C334.919 137.482 335.901 136.848 336.735 136.321C338.375 135.227 339.358 134.446 339.534 134.619Z" fill="#000072"/>
<path d="M311.651 131.267C311.479 131.356 310.473 129.91 309.793 127.183C309.115 124.485 308.973 120.459 310.316 116.364C310.976 114.325 311.889 112.477 312.929 110.935C313.961 109.388 315.107 108.151 316.15 107.22C318.262 105.364 319.894 104.707 319.991 104.876C320.129 105.084 318.753 106.072 316.962 108.03C315.17 109.974 313.077 113.026 311.866 116.857C310.616 120.669 310.568 124.37 310.924 126.975C311.279 129.593 311.884 131.169 311.651 131.269V131.267Z" fill="#000072"/>
<path d="M251.812 235.806C251.091 235.806 250.348 235.765 249.605 235.684C238.855 234.515 227.811 223.903 222.186 217.682C221.741 217.19 221.515 216.555 221.551 215.893C221.586 215.232 221.879 214.624 222.375 214.182C222.833 213.772 223.424 213.547 224.041 213.547C224.747 213.547 225.423 213.847 225.895 214.369C234.658 224.061 243.498 230.034 250.148 230.756C250.674 230.814 251.203 230.843 251.718 230.843C264.366 230.843 272.43 213.48 282.639 191.497L282.668 191.435C286.023 184.209 289.494 176.737 293.458 169.174C297.742 161.006 301.92 154.07 306.232 147.967C306.699 147.307 307.463 146.913 308.274 146.913C308.789 146.913 309.284 147.068 309.705 147.364C310.25 147.743 310.614 148.313 310.728 148.964C310.842 149.616 310.694 150.273 310.312 150.815C306.129 156.735 302.063 163.49 297.879 171.465C293.973 178.917 290.527 186.337 287.194 193.512C276.219 217.141 267.551 235.805 251.812 235.805V235.806Z" fill="#5A5E8C"/>
<path d="M308.273 147.797C308.593 147.797 308.913 147.892 309.194 148.087C309.919 148.594 310.094 149.589 309.586 150.31C305.38 156.262 301.293 163.049 297.092 171.058C293.176 178.529 289.726 185.958 286.388 193.144C275.603 216.368 266.984 234.924 251.812 234.924C251.122 234.924 250.42 234.885 249.701 234.808C239.244 233.671 228.386 223.221 222.845 217.094C222.253 216.439 222.307 215.429 222.966 214.84C223.273 214.566 223.656 214.431 224.04 214.431C224.48 214.431 224.918 214.61 225.234 214.96C234.141 224.811 243.186 230.889 250.05 231.636C250.614 231.697 251.17 231.728 251.716 231.728C264.944 231.728 273.163 214.005 283.471 191.807C286.824 184.587 290.291 177.122 294.243 169.583C298.509 161.448 302.669 154.545 306.956 148.476C307.268 148.034 307.767 147.797 308.272 147.797M308.272 146.033C307.171 146.033 306.136 146.567 305.504 147.461C301.169 153.597 296.972 160.566 292.669 168.768C288.694 176.35 285.22 183.832 281.86 191.068L281.831 191.13C271.754 212.827 263.795 229.964 251.716 229.964C251.233 229.964 250.737 229.937 250.243 229.882C243.807 229.183 235.173 223.314 226.553 213.782C225.914 213.074 224.997 212.667 224.038 212.667C223.203 212.667 222.401 212.973 221.779 213.528C220.392 214.766 220.279 216.895 221.525 218.273C227.235 224.588 238.463 235.362 249.508 236.563C250.283 236.647 251.058 236.69 251.812 236.69C268.12 236.69 276.893 217.799 288 193.885C291.328 186.72 294.768 179.312 298.666 171.875C302.832 163.936 306.878 157.213 311.039 151.326C311.557 150.592 311.758 149.7 311.602 148.816C311.447 147.932 310.954 147.161 310.215 146.645C309.644 146.246 308.973 146.034 308.274 146.034L308.272 146.033Z" fill="#000072"/>
<path d="M287.198 243.773L287.171 243.826C287.171 243.826 287.839 249.081 282.424 248.879C279.031 248.756 276.95 246.278 276.693 243.32C274.515 242.496 271.705 240.927 271.165 238.22C267.098 236.927 265.894 234.725 266.054 232.406L264.288 233.369C262.646 234.263 260.612 233.997 259.258 232.705C258.39 231.881 257.942 230.763 257.942 229.637C257.942 228.898 258.135 228.158 258.525 227.483C261.833 221.813 270.481 210.953 284.887 219.596L284.849 219.612C284.972 219.67 285.095 219.729 285.212 219.793L285.239 219.808C297.922 226.233 293.294 243.794 293.294 243.794C293.588 243.885 290.275 245.203 287.198 243.773Z" fill="#FFB78A"/>
<path d="M287.198 243.773L287.171 243.826C287.171 243.826 287.839 249.081 282.424 248.879C279.031 248.756 276.95 246.278 276.693 243.32C274.515 242.496 271.705 240.927 271.165 238.22C267.098 236.927 265.894 234.725 266.054 232.406L264.288 233.369C262.646 234.263 260.612 233.997 259.258 232.705C258.39 231.881 257.942 230.763 257.942 229.637C257.942 228.898 258.135 228.158 258.525 227.483C261.833 221.813 270.481 210.953 284.887 219.596L284.849 219.612C284.972 219.67 285.095 219.729 285.212 219.793L285.239 219.808C297.922 226.233 293.294 243.794 293.294 243.794C293.588 243.885 290.275 245.203 287.198 243.773Z" fill="#FFB78A"/>
<path d="M282.728 250.355C282.61 250.355 282.489 250.352 282.368 250.347C278.808 250.219 276.032 247.805 275.348 244.364C272.522 243.135 270.679 241.423 269.947 239.356C266.808 238.18 265.395 236.44 264.852 234.737C262.658 235.851 260.019 235.47 258.233 233.766C257.107 232.697 256.461 231.191 256.461 229.638C256.461 228.632 256.731 227.634 257.242 226.75C259.275 223.265 263.713 217.161 270.62 215.4C275.339 214.197 280.396 215.185 285.65 218.338C285.701 218.369 285.749 218.401 285.796 218.437C285.838 218.458 285.878 218.48 285.92 218.501C285.933 218.508 285.946 218.516 285.959 218.524C297.343 224.331 295.81 238.391 295.008 242.813C295.337 243.042 295.567 243.4 295.625 243.813C295.713 244.427 295.402 245.029 294.85 245.319C293.476 246.037 291.35 246.622 288.538 245.838C288.36 246.735 287.974 247.759 287.177 248.627C286.119 249.775 284.624 250.356 282.729 250.356L282.728 250.355ZM266.053 230.937C266.33 230.937 266.608 231.015 266.849 231.169C267.305 231.458 267.565 231.972 267.529 232.509C267.441 233.775 267.77 235.599 271.615 236.82C272.127 236.982 272.511 237.409 272.615 237.934C273.041 240.071 275.682 241.365 277.218 241.947C277.748 242.147 278.116 242.632 278.166 243.195C278.329 245.073 279.555 247.304 282.477 247.41C283.632 247.452 284.475 247.197 284.985 246.65C285.729 245.851 285.755 244.467 285.702 244.001C285.67 243.721 285.719 243.427 285.845 243.175L285.871 243.122C286.229 242.405 287.095 242.103 287.824 242.442C289.32 243.137 290.685 243.398 291.909 243.222C292.345 241.322 295.331 226.572 284.566 221.119C284.533 221.103 284.501 221.084 284.469 221.065C284.409 221.034 284.308 220.986 284.209 220.938C284.071 220.872 283.947 220.789 283.839 220.689C279.393 218.091 275.192 217.269 271.354 218.249C265.493 219.743 261.602 225.138 259.803 228.222C259.552 228.655 259.419 229.146 259.419 229.639C259.419 230.394 259.732 231.126 260.279 231.645C261.17 232.497 262.495 232.672 263.577 232.083L265.342 231.121C265.564 231 265.809 230.94 266.053 230.94V230.937Z" fill="#000072"/>
<path d="M286.569 245.104C285.717 244.471 284.971 243.773 284.288 243.047C283.965 242.704 283.983 242.167 284.328 241.846C284.575 241.615 284.925 241.56 285.222 241.674L285.237 241.68C286.102 242.014 286.974 242.281 287.825 242.442C288.652 242.598 289.197 243.392 289.039 244.215C288.882 245.037 288.083 245.578 287.255 245.422C287.022 245.377 286.811 245.283 286.632 245.151L286.571 245.104H286.569Z" fill="#000072"/>
<path d="M275.311 242.188C276.552 240.161 278.479 238.911 280.399 238.38C280.454 238.364 280.509 238.396 280.525 238.45C280.535 238.488 280.522 238.528 280.495 238.553C279.039 239.864 278.177 241.603 278.09 243.196C278.044 244.041 277.318 244.689 276.468 244.645C275.617 244.6 274.964 243.878 275.01 243.032C275.024 242.772 275.102 242.531 275.229 242.323L275.311 242.19V242.188Z" fill="#000072"/>
<path d="M269.558 237.816C269.713 237.046 270.002 236.332 270.38 235.723C270.758 235.11 271.208 234.588 271.686 234.132C272.644 233.218 273.715 232.554 274.8 231.985C274.955 231.904 275.148 231.963 275.23 232.117C275.296 232.24 275.271 232.387 275.179 232.483L275.176 232.486C274.353 233.339 273.61 234.254 273.105 235.222C272.851 235.703 272.662 236.193 272.558 236.667C272.45 237.142 272.447 237.596 272.509 238.009C272.635 238.83 272.068 239.596 271.242 239.72C270.416 239.845 269.646 239.281 269.52 238.461C269.493 238.286 269.498 238.111 269.531 237.947L269.557 237.816H269.558Z" fill="#000072"/>
<path d="M271.53 223.641C270.979 224.309 270.465 225.03 269.989 225.756C269.518 226.486 269.073 227.228 268.705 227.992C268.339 228.756 268.009 229.527 267.802 230.299C267.596 231.067 267.491 231.826 267.53 232.505C267.577 233.321 266.95 234.022 266.127 234.069C265.305 234.116 264.601 233.493 264.553 232.676C264.546 232.564 264.553 232.455 264.57 232.35L264.577 232.312C264.763 231.224 265.15 230.271 265.604 229.401C266.063 228.532 266.618 227.764 267.195 227.032C267.773 226.3 268.405 225.633 269.054 224.992C269.708 224.355 270.377 223.754 271.099 223.188C271.235 223.081 271.434 223.105 271.541 223.24C271.635 223.357 271.629 223.521 271.538 223.632L271.531 223.64L271.53 223.641Z" fill="#000072"/>
<path d="M222.663 201.321L264.363 259.679C265.009 260.583 265.339 261.697 265.184 262.795C265.028 263.903 264.382 265.011 262.42 265.011C258.859 265.011 194.285 261.8 182.343 261.205C181.149 261.145 180.056 260.536 179.378 259.557L145.58 210.685C144.974 209.809 144.645 208.773 144.654 207.71V207.616C144.697 205.139 146.481 203.031 148.93 202.567C157.344 200.969 190.575 195.276 218.914 199.074C220.424 199.276 221.782 200.089 222.663 201.322V201.321Z" fill="#C0BECC"/>
<g opacity="0.6">
<path d="M185.889 260.888L152.091 212.014C151.485 211.138 151.156 210.102 151.165 209.039V208.945C151.208 206.468 152.992 204.36 155.441 203.896C163.437 202.377 193.844 197.161 221.166 199.905C220.492 199.472 219.727 199.181 218.914 199.072C190.576 195.275 157.344 200.968 148.93 202.565C146.481 203.03 144.697 205.138 144.655 207.614V207.708C144.645 208.772 144.974 209.808 145.58 210.684L179.378 259.557C180.055 260.536 181.149 261.145 182.343 261.205C183.33 261.255 184.684 261.322 186.327 261.404C186.168 261.245 186.019 261.075 185.889 260.888Z" fill="white"/>
</g>
<g opacity="0.3">
<path d="M265.187 262.798C265.032 263.904 264.384 265.01 262.42 265.01C258.861 265.01 194.284 261.803 182.346 261.207C181.153 261.149 180.056 260.537 179.381 259.559L186.042 258.959C212.956 256.534 229.078 228.063 217.201 203.939L220.464 199.525C221.337 199.913 222.096 200.531 222.664 201.322L264.363 259.681C265.01 260.585 265.343 261.697 265.187 262.798Z" fill="#000072"/>
</g>
<path d="M262.42 266.775C258.948 266.775 200.182 263.861 182.255 262.968C180.522 262.881 178.901 261.98 177.915 260.558L144.117 211.684C143.296 210.496 142.867 209.116 142.879 207.693V207.593C142.936 204.291 145.341 201.451 148.597 200.833C157.988 199.05 190.827 193.53 219.152 197.324C221.144 197.591 222.951 198.675 224.111 200.3L265.81 258.657C266.752 259.975 267.155 261.532 266.943 263.04C266.614 265.379 264.923 266.775 262.42 266.775ZM197.809 199.545C176.396 199.545 156.248 202.972 149.262 204.299C147.648 204.606 146.458 206.013 146.431 207.645V207.731C146.423 208.419 146.635 209.097 147.042 209.686L180.842 258.559C181.208 259.089 181.788 259.413 182.433 259.445C195.18 260.08 258.944 263.247 262.421 263.247C263.33 263.247 263.369 262.97 263.428 262.551C263.513 261.947 263.326 261.273 262.917 260.701L221.216 202.343C220.623 201.512 219.698 200.958 218.676 200.821C211.86 199.908 204.768 199.546 197.809 199.546V199.545Z" fill="#000072"/>
<path d="M261.345 266.454C260.808 266.454 260.291 266.162 260.028 265.655C259.945 265.495 259.86 265.356 259.775 265.237L218.069 206.869C217.429 205.976 216.43 205.377 215.326 205.23C187.518 201.499 155.094 206.948 145.82 208.707C145.613 208.747 145.397 208.808 145.181 208.889C144.415 209.175 143.563 208.792 143.274 208.032C142.987 207.272 143.373 206.424 144.137 206.137C144.509 205.998 144.887 205.891 145.261 205.818C154.652 204.038 187.471 198.528 215.723 202.316C217.634 202.572 219.369 203.611 220.481 205.165L262.181 263.524C262.346 263.752 262.51 264.019 262.66 264.31C263.033 265.032 262.748 265.919 262.02 266.289C261.803 266.4 261.572 266.453 261.345 266.453V266.454Z" fill="#000072"/>
<path d="M206.363 215.097L202.324 216.457L203.417 220.24C201.874 220.57 200.207 221.773 199.434 225.158C197.802 232.304 192.054 236.685 188.168 237.71C184.282 238.736 186.766 247.975 199.473 242.63C212.117 237.312 211.498 223.668 207.222 220.876C208.492 217.029 206.363 215.097 206.363 215.097Z" fill="#F6DA1E"/>
<path d="M192.488 245.467C189.791 245.467 188.129 244.563 187.21 243.803C185.727 242.577 185.032 240.798 185.395 239.159C185.681 237.873 186.604 236.906 187.864 236.573C191.053 235.732 196.7 231.818 198.28 224.897C199.015 221.68 200.53 220.175 201.971 219.493L201.187 216.781C201.013 216.177 201.345 215.544 201.944 215.341L205.983 213.981C206.391 213.844 206.843 213.937 207.161 214.226C207.264 214.32 209.537 216.442 208.572 220.447C210.439 222.208 211.44 225.623 211.104 229.31C210.827 232.344 209.184 239.82 199.934 243.711C196.856 245.006 194.408 245.464 192.488 245.464V245.467ZM203.774 217.211L204.556 219.915C204.647 220.228 204.603 220.564 204.434 220.844C204.266 221.123 203.989 221.32 203.668 221.39C202.162 221.712 201.125 223.068 200.588 225.419C198.764 233.407 192.343 237.827 188.472 238.848C188.06 238.956 187.804 239.232 187.708 239.667C187.579 240.247 187.768 241.206 188.723 241.995C189.659 242.768 192.534 244.273 199.013 241.548C207.085 238.153 208.51 231.712 208.749 229.1C209.078 225.494 207.904 222.728 206.574 221.86C206.126 221.569 205.932 221.016 206.099 220.511C206.765 218.491 206.323 217.161 205.939 216.484L203.775 217.214L203.774 217.211Z" fill="#000072"/>
<path d="M205.428 222.301C205.872 223.727 205.807 225.236 205.549 226.685C205.272 228.136 204.735 229.527 204.041 230.822L203.498 231.781C203.302 232.09 203.085 232.386 202.879 232.689C202.484 233.307 201.982 233.843 201.522 234.408C201.041 234.956 200.506 235.454 199.994 235.964C199.434 236.429 198.886 236.902 198.313 237.342C198.214 237.419 198.071 237.401 197.994 237.301C197.928 237.216 197.932 237.099 197.997 237.019L198.008 237.007C198.463 236.454 198.948 235.939 199.412 235.408L200.73 233.762C201.552 232.632 202.368 231.5 203.003 230.269C203.645 229.047 204.203 227.782 204.58 226.456C204.951 225.137 205.204 223.753 205.164 222.363V222.344C205.162 222.27 205.221 222.206 205.297 222.205C205.359 222.203 205.413 222.244 205.432 222.3L205.428 222.301Z" fill="#000072"/>
<path d="M307.219 155.029C306.433 155.029 305.639 154.807 304.934 154.342C303.027 153.086 302.506 150.532 303.77 148.637L305.761 145.655C307.025 143.76 309.594 143.241 311.501 144.498C313.408 145.755 313.929 148.309 312.665 150.204L310.674 153.186C309.878 154.381 308.561 155.028 307.219 155.028V155.029Z" fill="#000072"/>
<g opacity="0.3">
<path d="M285.261 219.432L285.233 219.416C285.116 219.353 284.993 219.294 284.87 219.235L284.908 219.22C284.229 218.813 283.567 218.463 282.914 218.139C286.353 221.389 291.305 227.163 290.895 233.168C290.27 242.298 283.849 234.764 280.548 236.005C277.248 237.246 267.794 232.814 268.507 229.091C269.221 225.369 269.399 225.102 269.399 225.102C269.399 225.102 265.921 225.988 263.423 228.47C261.913 229.971 260.144 228.102 258.98 226.388C258.827 226.634 258.681 226.876 258.546 227.107C258.156 227.782 257.963 228.522 257.963 229.26C257.963 230.388 258.413 231.504 259.279 232.329C260.633 233.621 262.667 233.887 264.31 232.993L266.075 232.03C265.914 234.349 267.119 236.551 271.186 237.843C271.727 240.551 274.537 242.12 276.714 242.944C276.971 245.902 279.052 248.379 282.445 248.502C287.861 248.704 287.192 243.45 287.192 243.45L287.219 243.397C290.296 244.827 293.61 243.509 293.315 243.418C293.315 243.418 297.944 225.857 285.261 219.432Z" fill="#000072"/>
</g>
<path d="M236.524 121.58C241.363 119.389 247.593 123.781 250.438 131.389C253.283 138.997 251.667 146.94 246.828 149.131C241.989 151.322 235.76 146.931 232.915 139.322C230.07 131.714 231.686 123.771 236.524 121.58Z" fill="#000072"/>
<path d="M237.777 124.747C239.563 124.943 240.981 127.384 240.941 130.202C240.902 133.02 239.421 135.145 237.635 134.951C235.848 134.756 234.43 132.314 234.47 129.496C234.509 126.678 235.99 124.553 237.777 124.747Z" fill="white"/>
<path d="M237.862 135.281C237.774 135.281 237.688 135.277 237.599 135.267C235.655 135.056 234.107 132.465 234.148 129.492C234.174 127.645 234.8 126.007 235.823 125.109C236.417 124.587 237.101 124.354 237.812 124.43C239.788 124.645 241.305 127.182 241.263 130.205C241.238 132.051 240.612 133.689 239.589 134.588C239.07 135.044 238.477 135.281 237.863 135.281H237.862ZM237.553 125.054C237.095 125.054 236.648 125.237 236.248 125.588C235.359 126.369 234.814 127.831 234.791 129.501C234.754 132.154 236.045 134.457 237.67 134.633C238.191 134.69 238.709 134.51 239.165 134.11C240.053 133.329 240.598 131.866 240.62 130.198C240.657 127.545 239.366 125.242 237.741 125.066C237.678 125.059 237.616 125.055 237.553 125.055V125.054Z" fill="#000072"/>
<path d="M247.754 139.833C248.672 140.188 249.168 141.628 248.86 143.049C248.554 144.471 247.56 145.336 246.641 144.982C245.723 144.627 245.227 143.187 245.535 141.765C245.841 140.343 246.836 139.479 247.754 139.833Z" fill="#B199C5"/>
<path d="M247.064 145.382C246.883 145.382 246.702 145.348 246.525 145.279C245.45 144.863 244.877 143.291 245.221 141.698C245.426 140.75 245.934 139.978 246.579 139.632C247 139.405 247.446 139.373 247.869 139.537C248.944 139.952 249.517 141.525 249.173 143.118C248.968 144.067 248.459 144.839 247.814 145.185C247.568 145.317 247.315 145.383 247.062 145.383L247.064 145.382ZM247.334 140.073C247.186 140.073 247.036 140.113 246.885 140.194C246.404 140.452 246.017 141.064 245.85 141.832C245.579 143.084 245.995 144.39 246.759 144.685C247.005 144.779 247.258 144.76 247.512 144.623C247.994 144.364 248.381 143.752 248.548 142.984C248.818 141.732 248.401 140.426 247.639 140.132C247.538 140.093 247.437 140.073 247.334 140.073Z" fill="#000072"/>
<path d="M201.702 133.414C206.24 131.295 212.164 135.367 214.932 142.51C217.7 149.653 216.264 157.161 211.726 159.282C207.188 161.401 201.264 157.328 198.496 150.186C195.728 143.043 197.163 135.533 201.702 133.414Z" fill="#000072"/>
<path d="M202.917 136.386C204.604 136.55 205.968 138.837 205.963 141.495C205.957 144.153 204.584 146.173 202.897 146.01C201.209 145.846 199.846 143.559 199.852 140.901C199.858 138.243 201.229 136.222 202.918 136.386H202.917Z" fill="white"/>
<path d="M203.088 146.338C203.015 146.338 202.94 146.334 202.866 146.327C200.99 146.145 199.525 143.761 199.53 140.9C199.533 139.153 200.107 137.597 201.066 136.735C201.625 136.233 202.274 135.999 202.949 136.068C204.824 136.251 206.291 138.635 206.284 141.495C206.28 143.24 205.706 144.797 204.749 145.659C204.253 146.106 203.682 146.338 203.09 146.338H203.088ZM202.729 136.696C202.294 136.696 201.871 136.872 201.497 137.209C200.671 137.952 200.176 139.332 200.173 140.901C200.168 143.394 201.404 145.544 202.929 145.691C203.419 145.735 203.897 145.564 204.318 145.185C205.144 144.442 205.639 143.063 205.642 141.494C205.648 139 204.411 136.85 202.887 136.703C202.835 136.699 202.783 136.696 202.731 136.696H202.729Z" fill="#000072"/>
<path d="M212.494 150.504C213.364 150.828 213.847 152.181 213.573 153.525C213.3 154.869 212.372 155.696 211.502 155.371C210.633 155.047 210.15 153.694 210.423 152.35C210.697 151.006 211.624 150.179 212.494 150.504Z" fill="#B199C5"/>
<path d="M211.889 155.762C211.721 155.762 211.555 155.731 211.39 155.67C210.363 155.287 209.8 153.801 210.108 152.287C210.292 151.386 210.765 150.646 211.375 150.311C211.773 150.09 212.201 150.054 212.607 150.205C213.634 150.588 214.197 152.074 213.888 153.588C213.705 154.491 213.231 155.229 212.622 155.564C212.384 155.696 212.137 155.761 211.889 155.761V155.762ZM212.108 150.752C211.969 150.752 211.828 150.791 211.687 150.868C211.24 151.115 210.885 151.691 210.739 152.412C210.499 153.587 210.901 154.806 211.616 155.072C211.842 155.155 212.076 155.134 212.311 155.006C212.758 154.76 213.113 154.182 213.259 153.461C213.499 152.287 213.096 151.068 212.382 150.802C212.292 150.768 212.201 150.752 212.11 150.752H212.108Z" fill="#000072"/>
</svg>
